M48
; DRILL file {KiCad 9.0.7} date 2026-02-09T15:58:34+0100
; FORMAT={-:-/ absolute / metric / decimal}
; #@! TF.CreationDate,2026-02-09T15:58:34+01:00
; #@! TF.GenerationSoftware,Kicad,Pcbnew,9.0.7
; #@! TF.FileFunction,Plated,1,2,PTH
FMAT,2
METRIC
; #@! TA.AperFunction,Plated,PTH,ViaDrill
T1C0.600
; #@! TA.AperFunction,Plated,PTH,ComponentDrill
T2C0.700
; #@! TA.AperFunction,Plated,PTH,ComponentDrill
T3C0.730
; #@! TA.AperFunction,Plated,PTH,ComponentDrill
T4C0.750
; #@! TA.AperFunction,Plated,PTH,ComponentDrill
T5C0.800
; #@! TA.AperFunction,Plated,PTH,ComponentDrill
T6C0.900
; #@! TA.AperFunction,Plated,PTH,ComponentDrill
T7C1.000
; #@! TA.AperFunction,Plated,PTH,ComponentDrill
T8C1.020
; #@! TA.AperFunction,Plated,PTH,ComponentDrill
T9C1.100
; #@! TA.AperFunction,Plated,PTH,ComponentDrill
T10C1.300
; #@! TA.AperFunction,Plated,PTH,ComponentDrill
T11C1.400
; #@! TA.AperFunction,Plated,PTH,ComponentDrill
T12C1.500
%
G90
G05
T1
X118.73Y-83.74
X128.636Y-81.2
X132.7Y-85.01
X135.24Y-127.428
X138.796Y-58.34
X140.828Y-63.928
X141.336Y-83.105
X143.876Y-57.324
X143.876Y-62.912
X146.924Y-65.452
X147.94Y-81.2
X150.48Y-62.912
X150.48Y-64.944
X150.48Y-74.088
X150.48Y-75.612
X150.48Y-77.644
X152.766Y-49.958
X153.02Y-56.308
X155.56Y-53.768
X155.56Y-59.864
X155.56Y-64.944
X156.83Y-83.105
X160.64Y-64.944
X163.17Y-65.452
X163.18Y-53.768
X163.18Y-59.864
X165.71Y-59.356
X168.25Y-53.768
X168.26Y-61.896
X170.79Y-58.34
X170.79Y-65.452
X170.8Y-85.01
X170.8Y-127.428
X172.324Y-55.292
X173.33Y-69.516
X174.356Y-59.356
X175.87Y-69.516
X178.41Y-69.516
X179.436Y-57.324
X180.96Y-56.816
X182.484Y-63.42
X183.49Y-70.024
X183.5Y-81.2
X186.04Y-65.96
X186.04Y-78.152
X188.57Y-55.8
X188.57Y-72.056
X191.11Y-63.42
X191.755Y-83.105
X192.898Y-70.278
X193.66Y-59.356
X196.2Y-63.42
X203.82Y-82.47
X207.63Y-127.428
X207.69Y-85.07
X218.552Y-71.548
X220.33Y-82.47
X222.87Y-79.168
X224.14Y-59.356
X224.14Y-63.354
X224.14Y-64.604
X227.696Y-82.47
X231.545Y-129.852
X231.76Y-62.785
X232.395Y-131.58
X233.665Y-131.365
X234.3Y-62.785
X234.935Y-82.47
X235.57Y-129.46
X236.84Y-62.785
X239.38Y-56.308
X239.38Y-62.785
T2
X129.748Y-62.12
X130.256Y-55.8
X131.248Y-62.12
X131.756Y-55.8
X132.748Y-62.12
X133.256Y-55.8
X134.248Y-62.12
X134.756Y-55.8
X136.256Y-55.8
T3
X123.02Y-52.44
X124.52Y-52.44
X222.882Y-74.03
X224.382Y-74.03
T4
X133.97Y-129.46
X135.24Y-129.46
X136.51Y-129.46
X169.53Y-129.46
X170.8Y-129.46
X172.07Y-129.46
X206.36Y-129.46
X207.63Y-129.46
X208.9Y-129.46
T5
X65.644Y-123.11
X65.644Y-132.0
X75.67Y-112.95
X80.644Y-123.11
X80.644Y-132.0
X84.567Y-118.665
X90.67Y-112.95
X92.067Y-120.298
X123.556Y-68.5
X123.556Y-76.12
X126.096Y-68.5
X126.096Y-76.12
X128.636Y-68.5
X128.636Y-76.12
X131.176Y-68.5
X131.176Y-76.12
X133.716Y-68.5
X133.716Y-76.12
X136.256Y-68.5
X136.256Y-76.12
X138.796Y-68.5
X138.796Y-76.12
X141.336Y-68.5
X141.336Y-76.12
X147.94Y-91.36
X147.94Y-98.98
X150.48Y-91.36
X150.48Y-98.98
X183.495Y-91.36
X183.495Y-98.98
X186.035Y-91.36
X186.035Y-98.98
X220.325Y-91.355
X220.325Y-98.975
X222.865Y-91.355
X222.865Y-98.975
T6
X85.71Y-54.53
X95.87Y-54.53
T7
X74.452Y-53.26
X79.452Y-53.26
X111.021Y-72.945
X112.38Y-59.61
X116.021Y-72.945
X117.38Y-59.61
T8
X155.55Y-49.45
X155.55Y-74.85
X158.09Y-49.45
X158.09Y-74.85
X160.63Y-49.45
X160.63Y-74.85
X163.17Y-49.45
X163.17Y-74.85
X165.71Y-49.45
X165.71Y-74.85
X168.25Y-49.45
X168.25Y-74.85
X170.79Y-49.45
X170.79Y-74.85
X173.33Y-49.45
X173.33Y-74.85
X175.87Y-49.45
X175.87Y-74.85
X178.41Y-49.45
X178.41Y-74.85
X180.95Y-49.45
X180.95Y-74.85
X183.49Y-49.45
X183.49Y-74.85
X186.03Y-49.45
X186.03Y-74.85
X188.57Y-49.45
X188.57Y-74.85
X191.11Y-49.45
X191.11Y-74.85
X193.65Y-49.45
X193.65Y-74.85
X196.19Y-49.45
X196.19Y-74.85
X198.73Y-49.45
X198.73Y-74.85
X201.27Y-49.45
X201.27Y-74.85
T9
X102.22Y-53.26
X103.92Y-53.26
X105.62Y-53.26
X107.32Y-53.26
X109.02Y-53.26
T10
X70.63Y-103.74
X72.63Y-63.74
X80.63Y-103.74
X88.63Y-63.74
X90.63Y-103.74
X91.986Y-135.048
X96.759Y-123.745
X100.99Y-59.61
X105.99Y-59.61
X114.486Y-135.048
X119.259Y-123.745
X130.26Y-138.71
X140.76Y-119.71
X165.82Y-138.71
X176.32Y-119.71
X202.65Y-138.71
X213.15Y-119.71
T11
X104.82Y-90.29
X104.82Y-105.29
X104.82Y-110.29
X104.82Y-115.29
X112.32Y-90.29
X112.32Y-105.29
X112.32Y-110.29
X112.32Y-115.29
X120.06Y-90.29
X120.06Y-105.29
X120.06Y-110.29
X120.06Y-115.29
X127.56Y-90.29
X127.56Y-105.29
X127.56Y-110.29
X127.56Y-115.29
X135.3Y-90.29
X135.3Y-105.29
X135.3Y-110.29
X135.3Y-115.29
X142.8Y-90.29
X142.8Y-105.29
X142.8Y-110.29
X142.8Y-115.29
X156.89Y-90.29
X156.89Y-105.29
X156.89Y-110.29
X156.89Y-115.29
X164.39Y-90.29
X164.39Y-105.29
X164.39Y-110.29
X164.39Y-115.29
X170.8Y-90.33
X170.8Y-105.33
X170.8Y-110.33
X170.8Y-115.33
X178.3Y-90.33
X178.3Y-105.33
X178.3Y-110.33
X178.3Y-115.33
X192.45Y-90.29
X192.45Y-105.29
X192.45Y-110.29
X192.45Y-115.29
X199.95Y-90.29
X199.95Y-105.29
X199.95Y-110.29
X199.95Y-115.29
X207.69Y-90.29
X207.69Y-105.29
X207.69Y-110.29
X207.69Y-115.29
X215.19Y-90.29
X215.19Y-105.29
X215.19Y-110.29
X215.19Y-115.29
T12
X73.01Y-148.51
X80.63Y-148.51
X88.25Y-148.51
X95.87Y-148.51
X103.49Y-148.51
X111.11Y-148.51
X118.73Y-148.51
X126.35Y-148.51
X133.97Y-148.51
X141.59Y-148.51
X149.21Y-148.51
X156.83Y-148.51
X164.45Y-148.51
X172.07Y-148.51
X179.69Y-148.51
X241.92Y-82.47
X241.92Y-87.55
X241.92Y-93.9
X241.92Y-98.98
X241.92Y-105.33
X241.92Y-110.41
X241.92Y-116.76
X241.92Y-121.84
X241.92Y-128.19
X241.92Y-133.27
M30
