%TF.GenerationSoftware,KiCad,Pcbnew,9.0.7*%
%TF.CreationDate,2026-02-09T15:58:26+01:00*%
%TF.ProjectId,SaunaPCB,5361756e-6150-4434-922e-6b696361645f,0.0.1*%
%TF.SameCoordinates,Original*%
%TF.FileFunction,Soldermask,Bot*%
%TF.FilePolarity,Negative*%
%FSLAX46Y46*%
G04 Gerber Fmt 4.6, Leading zero omitted, Abs format (unit mm)*
G04 Created by KiCad (PCBNEW 9.0.7) date 2026-02-09 15:58:26*
%MOMM*%
%LPD*%
G01*
G04 APERTURE LIST*
G04 Aperture macros list*
%AMRoundRect*
0 Rectangle with rounded corners*
0 $1 Rounding radius*
0 $2 $3 $4 $5 $6 $7 $8 $9 X,Y pos of 4 corners*
0 Add a 4 corners polygon primitive as box body*
4,1,4,$2,$3,$4,$5,$6,$7,$8,$9,$2,$3,0*
0 Add four circle primitives for the rounded corners*
1,1,$1+$1,$2,$3*
1,1,$1+$1,$4,$5*
1,1,$1+$1,$6,$7*
1,1,$1+$1,$8,$9*
0 Add four rect primitives between the rounded corners*
20,1,$1+$1,$2,$3,$4,$5,0*
20,1,$1+$1,$4,$5,$6,$7,0*
20,1,$1+$1,$6,$7,$8,$9,0*
20,1,$1+$1,$8,$9,$2,$3,0*%
G04 Aperture macros list end*
%ADD10RoundRect,0.250000X0.550000X-0.550000X0.550000X0.550000X-0.550000X0.550000X-0.550000X-0.550000X0*%
%ADD11C,1.600000*%
%ADD12C,1.800000*%
%ADD13C,2.454000*%
%ADD14RoundRect,0.250000X-0.550000X0.550000X-0.550000X-0.550000X0.550000X-0.550000X0.550000X0.550000X0*%
%ADD15C,2.500000*%
%ADD16R,1.050000X1.500000*%
%ADD17O,1.050000X1.500000*%
%ADD18C,2.700000*%
%ADD19C,3.000000*%
%ADD20R,1.275000X1.800000*%
%ADD21O,1.275000X1.800000*%
%ADD22C,1.412000*%
%ADD23RoundRect,0.102000X-0.619000X-0.619000X0.619000X-0.619000X0.619000X0.619000X-0.619000X0.619000X0*%
%ADD24C,1.442000*%
%ADD25R,2.000000X2.000000*%
%ADD26C,2.000000*%
%ADD27C,3.200000*%
%ADD28RoundRect,0.250000X0.650000X0.650000X-0.650000X0.650000X-0.650000X-0.650000X0.650000X-0.650000X0*%
%ADD29RoundRect,0.250000X-0.750000X-0.750000X0.750000X-0.750000X0.750000X0.750000X-0.750000X0.750000X0*%
%ADD30C,2.600000*%
%ADD31RoundRect,0.102000X-0.765000X0.765000X-0.765000X-0.765000X0.765000X-0.765000X0.765000X0.765000X0*%
%ADD32C,1.734000*%
%ADD33RoundRect,0.250000X-0.650000X1.500000X-0.650000X-1.500000X0.650000X-1.500000X0.650000X1.500000X0*%
%ADD34RoundRect,0.250000X-0.625000X0.312500X-0.625000X-0.312500X0.625000X-0.312500X0.625000X0.312500X0*%
%ADD35RoundRect,0.250000X0.625000X-0.312500X0.625000X0.312500X-0.625000X0.312500X-0.625000X-0.312500X0*%
%ADD36RoundRect,0.250000X0.475000X-0.250000X0.475000X0.250000X-0.475000X0.250000X-0.475000X-0.250000X0*%
G04 APERTURE END LIST*
D10*
%TO.C,U204*%
X183495000Y-98980000D03*
D11*
X186035000Y-98980000D03*
X186035000Y-91360000D03*
X183495000Y-91360000D03*
%TD*%
D12*
%TO.C,RV201*%
X84567000Y-118665000D03*
X92067000Y-120298330D03*
%TD*%
D13*
%TO.C,J304*%
X241920000Y-98980000D03*
X241920000Y-93900000D03*
%TD*%
D14*
%TO.C,U301*%
X141336000Y-68500000D03*
D11*
X138796000Y-68500000D03*
X136256000Y-68500000D03*
X133716000Y-68500000D03*
X131176000Y-68500000D03*
X128636000Y-68500000D03*
X126096000Y-68500000D03*
X123556000Y-68500000D03*
X123556000Y-76120000D03*
X126096000Y-76120000D03*
X128636000Y-76120000D03*
X131176000Y-76120000D03*
X133716000Y-76120000D03*
X136256000Y-76120000D03*
X138796000Y-76120000D03*
X141336000Y-76120000D03*
%TD*%
D10*
%TO.C,U205*%
X220325000Y-98975000D03*
D11*
X222865000Y-98975000D03*
X222865000Y-91355000D03*
X220325000Y-91355000D03*
%TD*%
D15*
%TO.C,K206*%
X142800000Y-110290000D03*
X135300000Y-110290000D03*
X142800000Y-105290000D03*
X135300000Y-105290000D03*
X142800000Y-115290000D03*
X135300000Y-115290000D03*
X142800000Y-90290000D03*
X135300000Y-90290000D03*
%TD*%
D13*
%TO.C,J302*%
X241920000Y-121840000D03*
X241920000Y-116760000D03*
%TD*%
D16*
%TO.C,U208*%
X133970000Y-129460000D03*
D17*
X135240000Y-129460000D03*
X136510000Y-129460000D03*
%TD*%
D13*
%TO.C,J203*%
X73010000Y-148510000D03*
X80630000Y-148510000D03*
X88250000Y-148510000D03*
%TD*%
D15*
%TO.C,K207*%
X112320000Y-110290000D03*
X104820000Y-110290000D03*
X112320000Y-105290000D03*
X104820000Y-105290000D03*
X112320000Y-115290000D03*
X104820000Y-115290000D03*
X112320000Y-90290000D03*
X104820000Y-90290000D03*
%TD*%
D13*
%TO.C,J303*%
X241920000Y-110410000D03*
X241920000Y-105330000D03*
%TD*%
D18*
%TO.C,F201*%
X108009000Y-123745000D03*
D19*
X96759000Y-123745000D03*
X119259000Y-123745000D03*
%TD*%
D20*
%TO.C,U202*%
X102220000Y-53260000D03*
D21*
X103920000Y-53260000D03*
X105620000Y-53260000D03*
X107320000Y-53260000D03*
X109020000Y-53260000D03*
%TD*%
D13*
%TO.C,J202*%
X95870000Y-148510000D03*
X103490000Y-148510000D03*
X111110000Y-148510000D03*
%TD*%
D15*
%TO.C,L201*%
X202650000Y-138710000D03*
X213150000Y-119710000D03*
%TD*%
D22*
%TO.C,J306*%
X129748000Y-62120000D03*
X131248000Y-62120000D03*
X132748000Y-62120000D03*
X134248000Y-62120000D03*
%TD*%
D23*
%TO.C,D204*%
X124520000Y-52440000D03*
D24*
X123020000Y-52440000D03*
%TD*%
D25*
%TO.C,LS301*%
X116020785Y-72945000D03*
D26*
X111020785Y-72945000D03*
%TD*%
D27*
%TO.C,H203*%
X245000000Y-52000000D03*
%TD*%
D11*
%TO.C,C202*%
X75670000Y-112950000D03*
X90670000Y-112950000D03*
%TD*%
D28*
%TO.C,D203*%
X95870000Y-54530000D03*
D12*
X85710000Y-54530000D03*
%TD*%
D29*
%TO.C,C205*%
X112380000Y-59610000D03*
D26*
X117380000Y-59610000D03*
%TD*%
D13*
%TO.C,J201*%
X141590000Y-148510000D03*
X149210000Y-148510000D03*
X156830000Y-148510000D03*
%TD*%
D15*
%TO.C,L204*%
X130260000Y-138710000D03*
X140760000Y-119710000D03*
%TD*%
D27*
%TO.C,H202*%
X64120000Y-148510000D03*
%TD*%
D15*
%TO.C,K202*%
X215190000Y-110290000D03*
X207690000Y-110290000D03*
X215190000Y-105290000D03*
X207690000Y-105290000D03*
X215190000Y-115290000D03*
X207690000Y-115290000D03*
X215190000Y-90290000D03*
X207690000Y-90290000D03*
%TD*%
D27*
%TO.C,H201*%
X64120000Y-51990000D03*
%TD*%
D15*
%TO.C,K201*%
X199950000Y-110290000D03*
X192450000Y-110290000D03*
X199950000Y-105290000D03*
X192450000Y-105290000D03*
X199950000Y-115290000D03*
X192450000Y-115290000D03*
X199950000Y-90290000D03*
X192450000Y-90290000D03*
%TD*%
D13*
%TO.C,J301*%
X241920000Y-133270000D03*
X241920000Y-128190000D03*
%TD*%
D16*
%TO.C,U207*%
X169530000Y-129460000D03*
D17*
X170800000Y-129460000D03*
X172070000Y-129460000D03*
%TD*%
D27*
%TO.C,H205*%
X197470000Y-148510000D03*
%TD*%
D15*
%TO.C,K203*%
X164390000Y-110290000D03*
X156890000Y-110290000D03*
X164390000Y-105290000D03*
X156890000Y-105290000D03*
X164390000Y-115290000D03*
X156890000Y-115290000D03*
X164390000Y-90290000D03*
X156890000Y-90290000D03*
%TD*%
%TO.C,K205*%
X127560000Y-110290000D03*
X120060000Y-110290000D03*
X127560000Y-105290000D03*
X120060000Y-105290000D03*
X127560000Y-115290000D03*
X120060000Y-115290000D03*
X127560000Y-90290000D03*
X120060000Y-90290000D03*
%TD*%
D10*
%TO.C,U203*%
X147940000Y-98980000D03*
D11*
X150480000Y-98980000D03*
X150480000Y-91360000D03*
X147940000Y-91360000D03*
%TD*%
D13*
%TO.C,J204*%
X241920000Y-87550000D03*
X241920000Y-82470000D03*
%TD*%
%TO.C,J205*%
X164450000Y-148510000D03*
X172070000Y-148510000D03*
X179690000Y-148510000D03*
%TD*%
D11*
%TO.C,C201*%
X65644000Y-123110000D03*
X80644000Y-123110000D03*
%TD*%
D22*
%TO.C,J307*%
X136256000Y-55800000D03*
X134756000Y-55800000D03*
X133256000Y-55800000D03*
X131756000Y-55800000D03*
X130256000Y-55800000D03*
%TD*%
D13*
%TO.C,J206*%
X118730000Y-148510000D03*
X126350000Y-148510000D03*
X133970000Y-148510000D03*
%TD*%
D30*
%TO.C,L203*%
X100990000Y-59610000D03*
X105990000Y-59610000D03*
%TD*%
D23*
%TO.C,J305*%
X224382000Y-74030000D03*
D24*
X222882000Y-74030000D03*
%TD*%
D18*
%TO.C,F202*%
X103236000Y-135048000D03*
D19*
X91986000Y-135048000D03*
X114486000Y-135048000D03*
%TD*%
D27*
%TO.C,H204*%
X245000000Y-148510000D03*
%TD*%
D15*
%TO.C,L202*%
X165820000Y-138710000D03*
X176320000Y-119710000D03*
%TD*%
%TO.C,K204*%
X178300000Y-110330000D03*
X170800000Y-110330000D03*
X178300000Y-105330000D03*
X170800000Y-105330000D03*
X178300000Y-115330000D03*
X170800000Y-115330000D03*
X178300000Y-90330000D03*
X170800000Y-90330000D03*
%TD*%
D31*
%TO.C,U302*%
X201270000Y-49450000D03*
D32*
X198730000Y-49450000D03*
X196190000Y-49450000D03*
X193650000Y-49450000D03*
X191110000Y-49450000D03*
X188570000Y-49450000D03*
X186030000Y-49450000D03*
X183490000Y-49450000D03*
X180950000Y-49450000D03*
X178410000Y-49450000D03*
X175870000Y-49450000D03*
X173330000Y-49450000D03*
X170790000Y-49450000D03*
X168250000Y-49450000D03*
X165710000Y-49450000D03*
X163170000Y-49450000D03*
X160630000Y-49450000D03*
X158090000Y-49450000D03*
X155550000Y-49450000D03*
X155550000Y-74850000D03*
X158090000Y-74850000D03*
X160630000Y-74850000D03*
X163170000Y-74850000D03*
X165710000Y-74850000D03*
X168250000Y-74850000D03*
X170790000Y-74850000D03*
X173330000Y-74850000D03*
X175870000Y-74850000D03*
X178410000Y-74850000D03*
X180950000Y-74850000D03*
X183490000Y-74850000D03*
X186030000Y-74850000D03*
X188570000Y-74850000D03*
X191110000Y-74850000D03*
X193650000Y-74850000D03*
X196190000Y-74850000D03*
X198730000Y-74850000D03*
X201270000Y-74850000D03*
%TD*%
D11*
%TO.C,C203*%
X65644000Y-132000000D03*
X80644000Y-132000000D03*
%TD*%
D16*
%TO.C,U206*%
X206360000Y-129460000D03*
D17*
X207630000Y-129460000D03*
X208900000Y-129460000D03*
%TD*%
D15*
%TO.C,U201*%
X90630000Y-103740000D03*
X80630000Y-103740000D03*
X70630000Y-103740000D03*
X88630000Y-63740000D03*
X72630000Y-63740000D03*
%TD*%
D29*
%TO.C,C204*%
X74452323Y-53260000D03*
D26*
X79452323Y-53260000D03*
%TD*%
D33*
%TO.C,D206*%
X149210000Y-102830000D03*
X149210000Y-107830000D03*
%TD*%
D34*
%TO.C,R207*%
X141590000Y-98787500D03*
X141590000Y-101712500D03*
%TD*%
D35*
%TO.C,R206*%
X210170000Y-101712500D03*
X210170000Y-98787500D03*
%TD*%
D33*
%TO.C,D207*%
X184770000Y-102830000D03*
X184770000Y-107830000D03*
%TD*%
D34*
%TO.C,R209*%
X213980000Y-98787500D03*
X213980000Y-101712500D03*
%TD*%
%TO.C,R208*%
X177150000Y-98787500D03*
X177150000Y-101712500D03*
%TD*%
D36*
%TO.C,C206*%
X131430000Y-129140000D03*
X131430000Y-127240000D03*
%TD*%
D35*
%TO.C,R205*%
X173340000Y-101712500D03*
X173340000Y-98787500D03*
%TD*%
%TO.C,R204*%
X137780000Y-101712500D03*
X137780000Y-98787500D03*
%TD*%
D33*
%TO.C,D208*%
X221600000Y-102830000D03*
X221600000Y-107830000D03*
%TD*%
M02*
