%TF.GenerationSoftware,KiCad,Pcbnew,9.0.7*%
%TF.CreationDate,2026-02-09T15:58:26+01:00*%
%TF.ProjectId,SaunaPCB,5361756e-6150-4434-922e-6b696361645f,0.0.1*%
%TF.SameCoordinates,Original*%
%TF.FileFunction,Copper,L1,Top*%
%TF.FilePolarity,Positive*%
%FSLAX46Y46*%
G04 Gerber Fmt 4.6, Leading zero omitted, Abs format (unit mm)*
G04 Created by KiCad (PCBNEW 9.0.7) date 2026-02-09 15:58:26*
%MOMM*%
%LPD*%
G01*
G04 APERTURE LIST*
G04 Aperture macros list*
%AMRoundRect*
0 Rectangle with rounded corners*
0 $1 Rounding radius*
0 $2 $3 $4 $5 $6 $7 $8 $9 X,Y pos of 4 corners*
0 Add a 4 corners polygon primitive as box body*
4,1,4,$2,$3,$4,$5,$6,$7,$8,$9,$2,$3,0*
0 Add four circle primitives for the rounded corners*
1,1,$1+$1,$2,$3*
1,1,$1+$1,$4,$5*
1,1,$1+$1,$6,$7*
1,1,$1+$1,$8,$9*
0 Add four rect primitives between the rounded corners*
20,1,$1+$1,$2,$3,$4,$5,0*
20,1,$1+$1,$4,$5,$6,$7,0*
20,1,$1+$1,$6,$7,$8,$9,0*
20,1,$1+$1,$8,$9,$2,$3,0*%
G04 Aperture macros list end*
%ADD10C,0.300000*%
%TA.AperFunction,NonConductor*%
%ADD11C,0.300000*%
%TD*%
%TA.AperFunction,ComponentPad*%
%ADD12RoundRect,0.250000X0.550000X-0.550000X0.550000X0.550000X-0.550000X0.550000X-0.550000X-0.550000X0*%
%TD*%
%TA.AperFunction,ComponentPad*%
%ADD13C,1.600000*%
%TD*%
%TA.AperFunction,ComponentPad*%
%ADD14C,1.800000*%
%TD*%
%TA.AperFunction,ComponentPad*%
%ADD15C,2.250000*%
%TD*%
%TA.AperFunction,ComponentPad*%
%ADD16RoundRect,0.250000X-0.550000X0.550000X-0.550000X-0.550000X0.550000X-0.550000X0.550000X0.550000X0*%
%TD*%
%TA.AperFunction,ComponentPad*%
%ADD17C,2.500000*%
%TD*%
%TA.AperFunction,ComponentPad*%
%ADD18R,1.050000X1.500000*%
%TD*%
%TA.AperFunction,ComponentPad*%
%ADD19O,1.050000X1.500000*%
%TD*%
%TA.AperFunction,SMDPad,CuDef*%
%ADD20RoundRect,0.250000X-0.625000X0.312500X-0.625000X-0.312500X0.625000X-0.312500X0.625000X0.312500X0*%
%TD*%
%TA.AperFunction,ComponentPad*%
%ADD21C,3.000000*%
%TD*%
%TA.AperFunction,SMDPad,CuDef*%
%ADD22RoundRect,0.250000X1.500000X0.650000X-1.500000X0.650000X-1.500000X-0.650000X1.500000X-0.650000X0*%
%TD*%
%TA.AperFunction,ComponentPad*%
%ADD23R,1.275000X1.800000*%
%TD*%
%TA.AperFunction,ComponentPad*%
%ADD24O,1.275000X1.800000*%
%TD*%
%TA.AperFunction,ComponentPad*%
%ADD25C,1.208000*%
%TD*%
%TA.AperFunction,ComponentPad*%
%ADD26R,1.238000X1.238000*%
%TD*%
%TA.AperFunction,ComponentPad*%
%ADD27C,1.238000*%
%TD*%
%TA.AperFunction,ComponentPad*%
%ADD28R,2.000000X2.000000*%
%TD*%
%TA.AperFunction,ComponentPad*%
%ADD29C,2.000000*%
%TD*%
%TA.AperFunction,ComponentPad*%
%ADD30RoundRect,0.250000X0.650000X0.650000X-0.650000X0.650000X-0.650000X-0.650000X0.650000X-0.650000X0*%
%TD*%
%TA.AperFunction,ComponentPad*%
%ADD31RoundRect,0.250000X-0.750000X-0.750000X0.750000X-0.750000X0.750000X0.750000X-0.750000X0.750000X0*%
%TD*%
%TA.AperFunction,SMDPad,CuDef*%
%ADD32RoundRect,0.250000X0.625000X-0.312500X0.625000X0.312500X-0.625000X0.312500X-0.625000X-0.312500X0*%
%TD*%
%TA.AperFunction,SMDPad,CuDef*%
%ADD33RoundRect,0.250000X-0.312500X-0.625000X0.312500X-0.625000X0.312500X0.625000X-0.312500X0.625000X0*%
%TD*%
%TA.AperFunction,ComponentPad*%
%ADD34C,2.600000*%
%TD*%
%TA.AperFunction,ComponentPad*%
%ADD35R,1.530000X1.530000*%
%TD*%
%TA.AperFunction,ComponentPad*%
%ADD36C,1.530000*%
%TD*%
%TA.AperFunction,ViaPad*%
%ADD37C,1.000000*%
%TD*%
%TA.AperFunction,Conductor*%
%ADD38C,1.000000*%
%TD*%
%TA.AperFunction,Conductor*%
%ADD39C,0.400000*%
%TD*%
%TA.AperFunction,Conductor*%
%ADD40C,0.600000*%
%TD*%
%TA.AperFunction,Conductor*%
%ADD41C,0.800000*%
%TD*%
%TA.AperFunction,Conductor*%
%ADD42C,2.000000*%
%TD*%
%TA.AperFunction,Conductor*%
%ADD43C,3.000000*%
%TD*%
%TA.AperFunction,Conductor*%
%ADD44C,1.500000*%
%TD*%
%TA.AperFunction,Conductor*%
%ADD45C,0.300000*%
%TD*%
G04 APERTURE END LIST*
D10*
D11*
X212939082Y-145695568D02*
X213153368Y-145766996D01*
X213153368Y-145766996D02*
X213510510Y-145766996D01*
X213510510Y-145766996D02*
X213653368Y-145695568D01*
X213653368Y-145695568D02*
X213724796Y-145624139D01*
X213724796Y-145624139D02*
X213796225Y-145481282D01*
X213796225Y-145481282D02*
X213796225Y-145338425D01*
X213796225Y-145338425D02*
X213724796Y-145195568D01*
X213724796Y-145195568D02*
X213653368Y-145124139D01*
X213653368Y-145124139D02*
X213510510Y-145052710D01*
X213510510Y-145052710D02*
X213224796Y-144981282D01*
X213224796Y-144981282D02*
X213081939Y-144909853D01*
X213081939Y-144909853D02*
X213010510Y-144838425D01*
X213010510Y-144838425D02*
X212939082Y-144695568D01*
X212939082Y-144695568D02*
X212939082Y-144552710D01*
X212939082Y-144552710D02*
X213010510Y-144409853D01*
X213010510Y-144409853D02*
X213081939Y-144338425D01*
X213081939Y-144338425D02*
X213224796Y-144266996D01*
X213224796Y-144266996D02*
X213581939Y-144266996D01*
X213581939Y-144266996D02*
X213796225Y-144338425D01*
X215081939Y-145766996D02*
X215081939Y-144981282D01*
X215081939Y-144981282D02*
X215010510Y-144838425D01*
X215010510Y-144838425D02*
X214867653Y-144766996D01*
X214867653Y-144766996D02*
X214581939Y-144766996D01*
X214581939Y-144766996D02*
X214439081Y-144838425D01*
X215081939Y-145695568D02*
X214939081Y-145766996D01*
X214939081Y-145766996D02*
X214581939Y-145766996D01*
X214581939Y-145766996D02*
X214439081Y-145695568D01*
X214439081Y-145695568D02*
X214367653Y-145552710D01*
X214367653Y-145552710D02*
X214367653Y-145409853D01*
X214367653Y-145409853D02*
X214439081Y-145266996D01*
X214439081Y-145266996D02*
X214581939Y-145195568D01*
X214581939Y-145195568D02*
X214939081Y-145195568D01*
X214939081Y-145195568D02*
X215081939Y-145124139D01*
X216439082Y-144766996D02*
X216439082Y-145766996D01*
X215796224Y-144766996D02*
X215796224Y-145552710D01*
X215796224Y-145552710D02*
X215867653Y-145695568D01*
X215867653Y-145695568D02*
X216010510Y-145766996D01*
X216010510Y-145766996D02*
X216224796Y-145766996D01*
X216224796Y-145766996D02*
X216367653Y-145695568D01*
X216367653Y-145695568D02*
X216439082Y-145624139D01*
X217153367Y-144766996D02*
X217153367Y-145766996D01*
X217153367Y-144909853D02*
X217224796Y-144838425D01*
X217224796Y-144838425D02*
X217367653Y-144766996D01*
X217367653Y-144766996D02*
X217581939Y-144766996D01*
X217581939Y-144766996D02*
X217724796Y-144838425D01*
X217724796Y-144838425D02*
X217796225Y-144981282D01*
X217796225Y-144981282D02*
X217796225Y-145766996D01*
X219153368Y-145695568D02*
X219010510Y-145766996D01*
X219010510Y-145766996D02*
X218724796Y-145766996D01*
X218724796Y-145766996D02*
X218581939Y-145695568D01*
X218581939Y-145695568D02*
X218510510Y-145624139D01*
X218510510Y-145624139D02*
X218439082Y-145481282D01*
X218439082Y-145481282D02*
X218439082Y-145052710D01*
X218439082Y-145052710D02*
X218510510Y-144909853D01*
X218510510Y-144909853D02*
X218581939Y-144838425D01*
X218581939Y-144838425D02*
X218724796Y-144766996D01*
X218724796Y-144766996D02*
X219010510Y-144766996D01*
X219010510Y-144766996D02*
X219153368Y-144838425D01*
X220439082Y-145766996D02*
X220439082Y-144981282D01*
X220439082Y-144981282D02*
X220367653Y-144838425D01*
X220367653Y-144838425D02*
X220224796Y-144766996D01*
X220224796Y-144766996D02*
X219939082Y-144766996D01*
X219939082Y-144766996D02*
X219796224Y-144838425D01*
X220439082Y-145695568D02*
X220296224Y-145766996D01*
X220296224Y-145766996D02*
X219939082Y-145766996D01*
X219939082Y-145766996D02*
X219796224Y-145695568D01*
X219796224Y-145695568D02*
X219724796Y-145552710D01*
X219724796Y-145552710D02*
X219724796Y-145409853D01*
X219724796Y-145409853D02*
X219796224Y-145266996D01*
X219796224Y-145266996D02*
X219939082Y-145195568D01*
X219939082Y-145195568D02*
X220296224Y-145195568D01*
X220296224Y-145195568D02*
X220439082Y-145124139D01*
X222939082Y-145695568D02*
X222796224Y-145766996D01*
X222796224Y-145766996D02*
X222510510Y-145766996D01*
X222510510Y-145766996D02*
X222367653Y-145695568D01*
X222367653Y-145695568D02*
X222296224Y-145624139D01*
X222296224Y-145624139D02*
X222224796Y-145481282D01*
X222224796Y-145481282D02*
X222224796Y-145052710D01*
X222224796Y-145052710D02*
X222296224Y-144909853D01*
X222296224Y-144909853D02*
X222367653Y-144838425D01*
X222367653Y-144838425D02*
X222510510Y-144766996D01*
X222510510Y-144766996D02*
X222796224Y-144766996D01*
X222796224Y-144766996D02*
X222939082Y-144838425D01*
X223796224Y-145766996D02*
X223653367Y-145695568D01*
X223653367Y-145695568D02*
X223581938Y-145624139D01*
X223581938Y-145624139D02*
X223510510Y-145481282D01*
X223510510Y-145481282D02*
X223510510Y-145052710D01*
X223510510Y-145052710D02*
X223581938Y-144909853D01*
X223581938Y-144909853D02*
X223653367Y-144838425D01*
X223653367Y-144838425D02*
X223796224Y-144766996D01*
X223796224Y-144766996D02*
X224010510Y-144766996D01*
X224010510Y-144766996D02*
X224153367Y-144838425D01*
X224153367Y-144838425D02*
X224224796Y-144909853D01*
X224224796Y-144909853D02*
X224296224Y-145052710D01*
X224296224Y-145052710D02*
X224296224Y-145481282D01*
X224296224Y-145481282D02*
X224224796Y-145624139D01*
X224224796Y-145624139D02*
X224153367Y-145695568D01*
X224153367Y-145695568D02*
X224010510Y-145766996D01*
X224010510Y-145766996D02*
X223796224Y-145766996D01*
X224939081Y-144766996D02*
X224939081Y-145766996D01*
X224939081Y-144909853D02*
X225010510Y-144838425D01*
X225010510Y-144838425D02*
X225153367Y-144766996D01*
X225153367Y-144766996D02*
X225367653Y-144766996D01*
X225367653Y-144766996D02*
X225510510Y-144838425D01*
X225510510Y-144838425D02*
X225581939Y-144981282D01*
X225581939Y-144981282D02*
X225581939Y-145766996D01*
X226081939Y-144766996D02*
X226653367Y-144766996D01*
X226296224Y-144266996D02*
X226296224Y-145552710D01*
X226296224Y-145552710D02*
X226367653Y-145695568D01*
X226367653Y-145695568D02*
X226510510Y-145766996D01*
X226510510Y-145766996D02*
X226653367Y-145766996D01*
X227153367Y-145766996D02*
X227153367Y-144766996D01*
X227153367Y-145052710D02*
X227224796Y-144909853D01*
X227224796Y-144909853D02*
X227296225Y-144838425D01*
X227296225Y-144838425D02*
X227439082Y-144766996D01*
X227439082Y-144766996D02*
X227581939Y-144766996D01*
X228296224Y-145766996D02*
X228153367Y-145695568D01*
X228153367Y-145695568D02*
X228081938Y-145624139D01*
X228081938Y-145624139D02*
X228010510Y-145481282D01*
X228010510Y-145481282D02*
X228010510Y-145052710D01*
X228010510Y-145052710D02*
X228081938Y-144909853D01*
X228081938Y-144909853D02*
X228153367Y-144838425D01*
X228153367Y-144838425D02*
X228296224Y-144766996D01*
X228296224Y-144766996D02*
X228510510Y-144766996D01*
X228510510Y-144766996D02*
X228653367Y-144838425D01*
X228653367Y-144838425D02*
X228724796Y-144909853D01*
X228724796Y-144909853D02*
X228796224Y-145052710D01*
X228796224Y-145052710D02*
X228796224Y-145481282D01*
X228796224Y-145481282D02*
X228724796Y-145624139D01*
X228724796Y-145624139D02*
X228653367Y-145695568D01*
X228653367Y-145695568D02*
X228510510Y-145766996D01*
X228510510Y-145766996D02*
X228296224Y-145766996D01*
X229653367Y-145766996D02*
X229510510Y-145695568D01*
X229510510Y-145695568D02*
X229439081Y-145552710D01*
X229439081Y-145552710D02*
X229439081Y-144266996D01*
X232010510Y-144766996D02*
X232010510Y-145766996D01*
X231367652Y-144766996D02*
X231367652Y-145552710D01*
X231367652Y-145552710D02*
X231439081Y-145695568D01*
X231439081Y-145695568D02*
X231581938Y-145766996D01*
X231581938Y-145766996D02*
X231796224Y-145766996D01*
X231796224Y-145766996D02*
X231939081Y-145695568D01*
X231939081Y-145695568D02*
X232010510Y-145624139D01*
X232724795Y-144766996D02*
X232724795Y-145766996D01*
X232724795Y-144909853D02*
X232796224Y-144838425D01*
X232796224Y-144838425D02*
X232939081Y-144766996D01*
X232939081Y-144766996D02*
X233153367Y-144766996D01*
X233153367Y-144766996D02*
X233296224Y-144838425D01*
X233296224Y-144838425D02*
X233367653Y-144981282D01*
X233367653Y-144981282D02*
X233367653Y-145766996D01*
X234081938Y-145766996D02*
X234081938Y-144766996D01*
X234081938Y-144266996D02*
X234010510Y-144338425D01*
X234010510Y-144338425D02*
X234081938Y-144409853D01*
X234081938Y-144409853D02*
X234153367Y-144338425D01*
X234153367Y-144338425D02*
X234081938Y-144266996D01*
X234081938Y-144266996D02*
X234081938Y-144409853D01*
X234581939Y-144766996D02*
X235153367Y-144766996D01*
X234796224Y-144266996D02*
X234796224Y-145552710D01*
X234796224Y-145552710D02*
X234867653Y-145695568D01*
X234867653Y-145695568D02*
X235010510Y-145766996D01*
X235010510Y-145766996D02*
X235153367Y-145766996D01*
X212796225Y-146681912D02*
X213296225Y-148181912D01*
X213296225Y-148181912D02*
X213796225Y-146681912D01*
X214867653Y-148110484D02*
X214724796Y-148181912D01*
X214724796Y-148181912D02*
X214439082Y-148181912D01*
X214439082Y-148181912D02*
X214296224Y-148110484D01*
X214296224Y-148110484D02*
X214224796Y-147967626D01*
X214224796Y-147967626D02*
X214224796Y-147396198D01*
X214224796Y-147396198D02*
X214296224Y-147253341D01*
X214296224Y-147253341D02*
X214439082Y-147181912D01*
X214439082Y-147181912D02*
X214724796Y-147181912D01*
X214724796Y-147181912D02*
X214867653Y-147253341D01*
X214867653Y-147253341D02*
X214939082Y-147396198D01*
X214939082Y-147396198D02*
X214939082Y-147539055D01*
X214939082Y-147539055D02*
X214224796Y-147681912D01*
X215581938Y-148181912D02*
X215581938Y-147181912D01*
X215581938Y-147467626D02*
X215653367Y-147324769D01*
X215653367Y-147324769D02*
X215724796Y-147253341D01*
X215724796Y-147253341D02*
X215867653Y-147181912D01*
X215867653Y-147181912D02*
X216010510Y-147181912D01*
X216439081Y-148110484D02*
X216581938Y-148181912D01*
X216581938Y-148181912D02*
X216867652Y-148181912D01*
X216867652Y-148181912D02*
X217010509Y-148110484D01*
X217010509Y-148110484D02*
X217081938Y-147967626D01*
X217081938Y-147967626D02*
X217081938Y-147896198D01*
X217081938Y-147896198D02*
X217010509Y-147753341D01*
X217010509Y-147753341D02*
X216867652Y-147681912D01*
X216867652Y-147681912D02*
X216653367Y-147681912D01*
X216653367Y-147681912D02*
X216510509Y-147610484D01*
X216510509Y-147610484D02*
X216439081Y-147467626D01*
X216439081Y-147467626D02*
X216439081Y-147396198D01*
X216439081Y-147396198D02*
X216510509Y-147253341D01*
X216510509Y-147253341D02*
X216653367Y-147181912D01*
X216653367Y-147181912D02*
X216867652Y-147181912D01*
X216867652Y-147181912D02*
X217010509Y-147253341D01*
X217724795Y-148181912D02*
X217724795Y-147181912D01*
X217724795Y-146681912D02*
X217653367Y-146753341D01*
X217653367Y-146753341D02*
X217724795Y-146824769D01*
X217724795Y-146824769D02*
X217796224Y-146753341D01*
X217796224Y-146753341D02*
X217724795Y-146681912D01*
X217724795Y-146681912D02*
X217724795Y-146824769D01*
X218653367Y-148181912D02*
X218510510Y-148110484D01*
X218510510Y-148110484D02*
X218439081Y-148039055D01*
X218439081Y-148039055D02*
X218367653Y-147896198D01*
X218367653Y-147896198D02*
X218367653Y-147467626D01*
X218367653Y-147467626D02*
X218439081Y-147324769D01*
X218439081Y-147324769D02*
X218510510Y-147253341D01*
X218510510Y-147253341D02*
X218653367Y-147181912D01*
X218653367Y-147181912D02*
X218867653Y-147181912D01*
X218867653Y-147181912D02*
X219010510Y-147253341D01*
X219010510Y-147253341D02*
X219081939Y-147324769D01*
X219081939Y-147324769D02*
X219153367Y-147467626D01*
X219153367Y-147467626D02*
X219153367Y-147896198D01*
X219153367Y-147896198D02*
X219081939Y-148039055D01*
X219081939Y-148039055D02*
X219010510Y-148110484D01*
X219010510Y-148110484D02*
X218867653Y-148181912D01*
X218867653Y-148181912D02*
X218653367Y-148181912D01*
X219796224Y-147181912D02*
X219796224Y-148181912D01*
X219796224Y-147324769D02*
X219867653Y-147253341D01*
X219867653Y-147253341D02*
X220010510Y-147181912D01*
X220010510Y-147181912D02*
X220224796Y-147181912D01*
X220224796Y-147181912D02*
X220367653Y-147253341D01*
X220367653Y-147253341D02*
X220439082Y-147396198D01*
X220439082Y-147396198D02*
X220439082Y-148181912D01*
X223081939Y-148181912D02*
X222224796Y-148181912D01*
X222653367Y-148181912D02*
X222653367Y-146681912D01*
X222653367Y-146681912D02*
X222510510Y-146896198D01*
X222510510Y-146896198D02*
X222367653Y-147039055D01*
X222367653Y-147039055D02*
X222224796Y-147110484D01*
X223724795Y-148039055D02*
X223796224Y-148110484D01*
X223796224Y-148110484D02*
X223724795Y-148181912D01*
X223724795Y-148181912D02*
X223653367Y-148110484D01*
X223653367Y-148110484D02*
X223724795Y-148039055D01*
X223724795Y-148039055D02*
X223724795Y-148181912D01*
X224724796Y-146681912D02*
X224867653Y-146681912D01*
X224867653Y-146681912D02*
X225010510Y-146753341D01*
X225010510Y-146753341D02*
X225081939Y-146824769D01*
X225081939Y-146824769D02*
X225153367Y-146967626D01*
X225153367Y-146967626D02*
X225224796Y-147253341D01*
X225224796Y-147253341D02*
X225224796Y-147610484D01*
X225224796Y-147610484D02*
X225153367Y-147896198D01*
X225153367Y-147896198D02*
X225081939Y-148039055D01*
X225081939Y-148039055D02*
X225010510Y-148110484D01*
X225010510Y-148110484D02*
X224867653Y-148181912D01*
X224867653Y-148181912D02*
X224724796Y-148181912D01*
X224724796Y-148181912D02*
X224581939Y-148110484D01*
X224581939Y-148110484D02*
X224510510Y-148039055D01*
X224510510Y-148039055D02*
X224439081Y-147896198D01*
X224439081Y-147896198D02*
X224367653Y-147610484D01*
X224367653Y-147610484D02*
X224367653Y-147253341D01*
X224367653Y-147253341D02*
X224439081Y-146967626D01*
X224439081Y-146967626D02*
X224510510Y-146824769D01*
X224510510Y-146824769D02*
X224581939Y-146753341D01*
X224581939Y-146753341D02*
X224724796Y-146681912D01*
X213010510Y-149096828D02*
X213010510Y-150311114D01*
X213010510Y-150311114D02*
X213081939Y-150453971D01*
X213081939Y-150453971D02*
X213153368Y-150525400D01*
X213153368Y-150525400D02*
X213296225Y-150596828D01*
X213296225Y-150596828D02*
X213581939Y-150596828D01*
X213581939Y-150596828D02*
X213724796Y-150525400D01*
X213724796Y-150525400D02*
X213796225Y-150453971D01*
X213796225Y-150453971D02*
X213867653Y-150311114D01*
X213867653Y-150311114D02*
X213867653Y-149096828D01*
X214581939Y-149596828D02*
X214581939Y-151096828D01*
X214581939Y-149668257D02*
X214724797Y-149596828D01*
X214724797Y-149596828D02*
X215010511Y-149596828D01*
X215010511Y-149596828D02*
X215153368Y-149668257D01*
X215153368Y-149668257D02*
X215224797Y-149739685D01*
X215224797Y-149739685D02*
X215296225Y-149882542D01*
X215296225Y-149882542D02*
X215296225Y-150311114D01*
X215296225Y-150311114D02*
X215224797Y-150453971D01*
X215224797Y-150453971D02*
X215153368Y-150525400D01*
X215153368Y-150525400D02*
X215010511Y-150596828D01*
X215010511Y-150596828D02*
X214724797Y-150596828D01*
X214724797Y-150596828D02*
X214581939Y-150525400D01*
X215939082Y-149596828D02*
X215939082Y-151096828D01*
X215939082Y-149668257D02*
X216081940Y-149596828D01*
X216081940Y-149596828D02*
X216367654Y-149596828D01*
X216367654Y-149596828D02*
X216510511Y-149668257D01*
X216510511Y-149668257D02*
X216581940Y-149739685D01*
X216581940Y-149739685D02*
X216653368Y-149882542D01*
X216653368Y-149882542D02*
X216653368Y-150311114D01*
X216653368Y-150311114D02*
X216581940Y-150453971D01*
X216581940Y-150453971D02*
X216510511Y-150525400D01*
X216510511Y-150525400D02*
X216367654Y-150596828D01*
X216367654Y-150596828D02*
X216081940Y-150596828D01*
X216081940Y-150596828D02*
X215939082Y-150525400D01*
X217867654Y-150525400D02*
X217724797Y-150596828D01*
X217724797Y-150596828D02*
X217439083Y-150596828D01*
X217439083Y-150596828D02*
X217296225Y-150525400D01*
X217296225Y-150525400D02*
X217224797Y-150382542D01*
X217224797Y-150382542D02*
X217224797Y-149811114D01*
X217224797Y-149811114D02*
X217296225Y-149668257D01*
X217296225Y-149668257D02*
X217439083Y-149596828D01*
X217439083Y-149596828D02*
X217724797Y-149596828D01*
X217724797Y-149596828D02*
X217867654Y-149668257D01*
X217867654Y-149668257D02*
X217939083Y-149811114D01*
X217939083Y-149811114D02*
X217939083Y-149953971D01*
X217939083Y-149953971D02*
X217224797Y-150096828D01*
X218581939Y-150596828D02*
X218581939Y-149596828D01*
X218581939Y-149882542D02*
X218653368Y-149739685D01*
X218653368Y-149739685D02*
X218724797Y-149668257D01*
X218724797Y-149668257D02*
X218867654Y-149596828D01*
X218867654Y-149596828D02*
X219010511Y-149596828D01*
X220581939Y-150525400D02*
X220724796Y-150596828D01*
X220724796Y-150596828D02*
X221010510Y-150596828D01*
X221010510Y-150596828D02*
X221153367Y-150525400D01*
X221153367Y-150525400D02*
X221224796Y-150382542D01*
X221224796Y-150382542D02*
X221224796Y-150311114D01*
X221224796Y-150311114D02*
X221153367Y-150168257D01*
X221153367Y-150168257D02*
X221010510Y-150096828D01*
X221010510Y-150096828D02*
X220796225Y-150096828D01*
X220796225Y-150096828D02*
X220653367Y-150025400D01*
X220653367Y-150025400D02*
X220581939Y-149882542D01*
X220581939Y-149882542D02*
X220581939Y-149811114D01*
X220581939Y-149811114D02*
X220653367Y-149668257D01*
X220653367Y-149668257D02*
X220796225Y-149596828D01*
X220796225Y-149596828D02*
X221010510Y-149596828D01*
X221010510Y-149596828D02*
X221153367Y-149668257D01*
X221867653Y-150596828D02*
X221867653Y-149596828D01*
X221867653Y-149096828D02*
X221796225Y-149168257D01*
X221796225Y-149168257D02*
X221867653Y-149239685D01*
X221867653Y-149239685D02*
X221939082Y-149168257D01*
X221939082Y-149168257D02*
X221867653Y-149096828D01*
X221867653Y-149096828D02*
X221867653Y-149239685D01*
X223224797Y-150596828D02*
X223224797Y-149096828D01*
X223224797Y-150525400D02*
X223081939Y-150596828D01*
X223081939Y-150596828D02*
X222796225Y-150596828D01*
X222796225Y-150596828D02*
X222653368Y-150525400D01*
X222653368Y-150525400D02*
X222581939Y-150453971D01*
X222581939Y-150453971D02*
X222510511Y-150311114D01*
X222510511Y-150311114D02*
X222510511Y-149882542D01*
X222510511Y-149882542D02*
X222581939Y-149739685D01*
X222581939Y-149739685D02*
X222653368Y-149668257D01*
X222653368Y-149668257D02*
X222796225Y-149596828D01*
X222796225Y-149596828D02*
X223081939Y-149596828D01*
X223081939Y-149596828D02*
X223224797Y-149668257D01*
X224510511Y-150525400D02*
X224367654Y-150596828D01*
X224367654Y-150596828D02*
X224081940Y-150596828D01*
X224081940Y-150596828D02*
X223939082Y-150525400D01*
X223939082Y-150525400D02*
X223867654Y-150382542D01*
X223867654Y-150382542D02*
X223867654Y-149811114D01*
X223867654Y-149811114D02*
X223939082Y-149668257D01*
X223939082Y-149668257D02*
X224081940Y-149596828D01*
X224081940Y-149596828D02*
X224367654Y-149596828D01*
X224367654Y-149596828D02*
X224510511Y-149668257D01*
X224510511Y-149668257D02*
X224581940Y-149811114D01*
X224581940Y-149811114D02*
X224581940Y-149953971D01*
X224581940Y-149953971D02*
X223867654Y-150096828D01*
D12*
%TO.P,U204,1*%
%TO.N,Net-(D207-K)*%
X183495000Y-98980000D03*
D13*
%TO.P,U204,2*%
%TO.N,Net-(D206-A)*%
X186035000Y-98980000D03*
%TO.P,U204,3*%
%TO.N,GND*%
X186035000Y-91360000D03*
%TO.P,U204,4*%
%TO.N,L2_Sense*%
X183495000Y-91360000D03*
%TD*%
D14*
%TO.P,RV201,1*%
%TO.N,N*%
X84567000Y-118665000D03*
%TO.P,RV201,2*%
%TO.N,L1_ON*%
X92067000Y-120298330D03*
%TD*%
D15*
%TO.P,J304,1*%
%TO.N,GND*%
X241920000Y-98980000D03*
%TO.P,J304,2*%
%TO.N,KTY_Oven*%
X241920000Y-93900000D03*
%TD*%
D16*
%TO.P,U301,1,I1*%
%TO.N,/Controller part/R1_3V3*%
X141336000Y-68500000D03*
D13*
%TO.P,U301,2,I2*%
X138796000Y-68500000D03*
%TO.P,U301,3,I3*%
%TO.N,/Controller part/R2_3V3*%
X136256000Y-68500000D03*
%TO.P,U301,4,I4*%
X133716000Y-68500000D03*
%TO.P,U301,5,I5*%
%TO.N,/Controller part/R3_3V3*%
X131176000Y-68500000D03*
%TO.P,U301,6,I6*%
X128636000Y-68500000D03*
%TO.P,U301,7,I7*%
%TO.N,/Controller part/Summer_3V3*%
X126096000Y-68500000D03*
%TO.P,U301,8,GND*%
%TO.N,GND*%
X123556000Y-68500000D03*
%TO.P,U301,9,COM*%
%TO.N,24VR*%
X123556000Y-76120000D03*
%TO.P,U301,10,O7*%
%TO.N,Net-(U301-O7)*%
X126096000Y-76120000D03*
%TO.P,U301,11,O6*%
%TO.N,Relais_3*%
X128636000Y-76120000D03*
%TO.P,U301,12,O5*%
X131176000Y-76120000D03*
%TO.P,U301,13,O4*%
%TO.N,Relais_2*%
X133716000Y-76120000D03*
%TO.P,U301,14,O3*%
X136256000Y-76120000D03*
%TO.P,U301,15,O2*%
%TO.N,Relais_1*%
X138796000Y-76120000D03*
%TO.P,U301,16,O1*%
X141336000Y-76120000D03*
%TD*%
D12*
%TO.P,U205,1*%
%TO.N,Net-(D208-K)*%
X220325000Y-98975000D03*
D13*
%TO.P,U205,2*%
%TO.N,Net-(D206-A)*%
X222865000Y-98975000D03*
%TO.P,U205,3*%
%TO.N,GND*%
X222865000Y-91355000D03*
%TO.P,U205,4*%
%TO.N,L3_Sense*%
X220325000Y-91355000D03*
%TD*%
D17*
%TO.P,K206,11a*%
%TO.N,/Power distribution part/L1_SW*%
X142800000Y-110290000D03*
%TO.P,K206,11b*%
X135300000Y-110290000D03*
%TO.P,K206,12a*%
%TO.N,unconnected-(K206-Pad12a)*%
X142800000Y-105290000D03*
%TO.P,K206,12b*%
%TO.N,unconnected-(K206-Pad12b)*%
X135300000Y-105290000D03*
%TO.P,K206,14a*%
%TO.N,/Power distribution part/K206_Out*%
X142800000Y-115290000D03*
%TO.P,K206,14b*%
X135300000Y-115290000D03*
%TO.P,K206,A1*%
%TO.N,24VR*%
X142800000Y-90290000D03*
%TO.P,K206,A2*%
%TO.N,Relais_2*%
X135300000Y-90290000D03*
%TD*%
D15*
%TO.P,J302,1*%
%TO.N,GND*%
X241920000Y-121840000D03*
%TO.P,J302,2*%
%TO.N,Standby_OnOff*%
X241920000Y-116760000D03*
%TD*%
D18*
%TO.P,U208,1,VCC*%
%TO.N,+3V3*%
X133970000Y-129460000D03*
D19*
%TO.P,U208,2,GND*%
%TO.N,GND*%
X135240000Y-129460000D03*
%TO.P,U208,3,OUT*%
%TO.N,I_L1*%
X136510000Y-129460000D03*
%TD*%
D15*
%TO.P,J203,1*%
%TO.N,PE*%
X73010000Y-148510000D03*
%TO.P,J203,2*%
X80630000Y-148510000D03*
%TO.P,J203,3*%
X88250000Y-148510000D03*
%TD*%
D17*
%TO.P,K207,11a*%
%TO.N,Net-(F201-Pad1)*%
X112320000Y-110290000D03*
%TO.P,K207,11b*%
X104820000Y-110290000D03*
%TO.P,K207,12a*%
%TO.N,unconnected-(K207-Pad12a)*%
X112320000Y-105290000D03*
%TO.P,K207,12b*%
%TO.N,unconnected-(K207-Pad12b)*%
X104820000Y-105290000D03*
%TO.P,K207,14a*%
%TO.N,L1*%
X112320000Y-115290000D03*
%TO.P,K207,14b*%
X104820000Y-115290000D03*
%TO.P,K207,A1*%
%TO.N,24VR*%
X112320000Y-90290000D03*
%TO.P,K207,A2*%
%TO.N,Relais_3*%
X104820000Y-90290000D03*
%TD*%
D15*
%TO.P,J303,1*%
%TO.N,GND*%
X241920000Y-110410000D03*
%TO.P,J303,2*%
%TO.N,Door_Contact*%
X241920000Y-105330000D03*
%TD*%
D20*
%TO.P,R306,1*%
%TO.N,+3V3*%
X143876000Y-58909500D03*
%TO.P,R306,2*%
%TO.N,SCL*%
X143876000Y-61834500D03*
%TD*%
D21*
%TO.P,F201,1*%
%TO.N,Net-(F201-Pad1)*%
X96759000Y-123745000D03*
%TO.P,F201,2*%
%TO.N,Light_out*%
X119259000Y-123745000D03*
%TD*%
D22*
%TO.P,D202,1,K*%
%TO.N,24VR*%
X141550000Y-85010000D03*
%TO.P,D202,2,A*%
%TO.N,Relais_2*%
X136550000Y-85010000D03*
%TD*%
D23*
%TO.P,U202,1,VIN*%
%TO.N,+24V*%
X102220000Y-53260000D03*
D24*
%TO.P,U202,2,OUT*%
%TO.N,Net-(D203-K)*%
X103920000Y-53260000D03*
%TO.P,U202,3,GND*%
%TO.N,GND*%
X105620000Y-53260000D03*
%TO.P,U202,4,FB*%
%TO.N,+5V*%
X107320000Y-53260000D03*
%TO.P,U202,5,~{ON}/OFF*%
%TO.N,GND*%
X109020000Y-53260000D03*
%TD*%
D15*
%TO.P,J202,1*%
%TO.N,N*%
X95870000Y-148510000D03*
%TO.P,J202,2*%
X103490000Y-148510000D03*
%TO.P,J202,3*%
X111110000Y-148510000D03*
%TD*%
D17*
%TO.P,L201,1,1*%
%TO.N,/Power distribution part/L3_OUT*%
X202650000Y-138710000D03*
%TO.P,L201,2,2*%
%TO.N,/Power distribution part/K202_Out*%
X213150000Y-119710000D03*
%TD*%
D25*
%TO.P,J306,1,1*%
%TO.N,GND*%
X129748000Y-62120000D03*
%TO.P,J306,2,2*%
%TO.N,+5V*%
X131248000Y-62120000D03*
%TO.P,J306,3,3*%
%TO.N,SDA*%
X132748000Y-62120000D03*
%TO.P,J306,4,4*%
%TO.N,SCL*%
X134248000Y-62120000D03*
%TD*%
D26*
%TO.P,D204,1,K*%
%TO.N,GND*%
X124520000Y-52440000D03*
D27*
%TO.P,D204,2,A*%
%TO.N,Net-(D204-A)*%
X123020000Y-52440000D03*
%TD*%
D28*
%TO.P,LS301,1,1*%
%TO.N,Net-(U301-O7)*%
X116020785Y-72945000D03*
D29*
%TO.P,LS301,2,2*%
%TO.N,+5V*%
X111020785Y-72945000D03*
%TD*%
D13*
%TO.P,C202,1*%
%TO.N,N*%
X75670000Y-112950000D03*
%TO.P,C202,2*%
%TO.N,L1_ON*%
X90670000Y-112950000D03*
%TD*%
D30*
%TO.P,D203,1,K*%
%TO.N,Net-(D203-K)*%
X95870000Y-54530000D03*
D14*
%TO.P,D203,2,A*%
%TO.N,GND*%
X85710000Y-54530000D03*
%TD*%
D31*
%TO.P,C205,1*%
%TO.N,+5V*%
X112380000Y-59610000D03*
D29*
%TO.P,C205,2*%
%TO.N,GND*%
X117380000Y-59610000D03*
%TD*%
D15*
%TO.P,J201,1*%
%TO.N,L1*%
X141590000Y-148510000D03*
%TO.P,J201,2*%
%TO.N,L2*%
X149210000Y-148510000D03*
%TO.P,J201,3*%
%TO.N,L3*%
X156830000Y-148510000D03*
%TD*%
D17*
%TO.P,L204,1,1*%
%TO.N,/Power distribution part/L1_OUT*%
X130260000Y-138710000D03*
%TO.P,L204,2,2*%
%TO.N,/Power distribution part/K206_Out*%
X140760000Y-119710000D03*
%TD*%
D20*
%TO.P,R305,1*%
%TO.N,+3V3*%
X143876000Y-53321500D03*
%TO.P,R305,2*%
%TO.N,ENC_CLK*%
X143876000Y-56246500D03*
%TD*%
D17*
%TO.P,K202,11a*%
%TO.N,/Power distribution part/L3_SW*%
X215190000Y-110290000D03*
%TO.P,K202,11b*%
X207690000Y-110290000D03*
%TO.P,K202,12a*%
%TO.N,unconnected-(K202-Pad12a)*%
X215190000Y-105290000D03*
%TO.P,K202,12b*%
%TO.N,unconnected-(K202-Pad12b)*%
X207690000Y-105290000D03*
%TO.P,K202,14a*%
%TO.N,/Power distribution part/K202_Out*%
X215190000Y-115290000D03*
%TO.P,K202,14b*%
X207690000Y-115290000D03*
%TO.P,K202,A1*%
%TO.N,24VR*%
X215190000Y-90290000D03*
%TO.P,K202,A2*%
%TO.N,Relais_2*%
X207690000Y-90290000D03*
%TD*%
D20*
%TO.P,R307,1*%
%TO.N,+3V3*%
X140828000Y-53321500D03*
%TO.P,R307,2*%
%TO.N,ENC_DT*%
X140828000Y-56246500D03*
%TD*%
%TO.P,R309,1*%
%TO.N,+3V3*%
X140828000Y-58909500D03*
%TO.P,R309,2*%
%TO.N,SDA*%
X140828000Y-61834500D03*
%TD*%
D17*
%TO.P,K201,11a*%
%TO.N,/Power distribution part/L3_SW*%
X199950000Y-110290000D03*
%TO.P,K201,11b*%
X192450000Y-110290000D03*
%TO.P,K201,12a*%
%TO.N,unconnected-(K201-Pad12a)*%
X199950000Y-105290000D03*
%TO.P,K201,12b*%
%TO.N,unconnected-(K201-Pad12b)*%
X192450000Y-105290000D03*
%TO.P,K201,14a*%
%TO.N,L3*%
X199950000Y-115290000D03*
%TO.P,K201,14b*%
X192450000Y-115290000D03*
%TO.P,K201,A1*%
%TO.N,24VR*%
X199950000Y-90290000D03*
%TO.P,K201,A2*%
%TO.N,Relais_1*%
X192450000Y-90290000D03*
%TD*%
D15*
%TO.P,J301,1*%
%TO.N,GND*%
X241920000Y-133270000D03*
%TO.P,J301,2*%
%TO.N,Light_OnOff*%
X241920000Y-128190000D03*
%TD*%
D18*
%TO.P,U207,1,VCC*%
%TO.N,+3V3*%
X169530000Y-129460000D03*
D19*
%TO.P,U207,2,GND*%
%TO.N,GND*%
X170800000Y-129460000D03*
%TO.P,U207,3,OUT*%
%TO.N,I_L2*%
X172070000Y-129460000D03*
%TD*%
D17*
%TO.P,K203,11a*%
%TO.N,/Power distribution part/L2_SW*%
X164390000Y-110290000D03*
%TO.P,K203,11b*%
X156890000Y-110290000D03*
%TO.P,K203,12a*%
%TO.N,unconnected-(K203-Pad12a)*%
X164390000Y-105290000D03*
%TO.P,K203,12b*%
%TO.N,unconnected-(K203-Pad12b)*%
X156890000Y-105290000D03*
%TO.P,K203,14a*%
%TO.N,L2*%
X164390000Y-115290000D03*
%TO.P,K203,14b*%
X156890000Y-115290000D03*
%TO.P,K203,A1*%
%TO.N,24VR*%
X164390000Y-90290000D03*
%TO.P,K203,A2*%
%TO.N,Relais_1*%
X156890000Y-90290000D03*
%TD*%
%TO.P,K205,11a*%
%TO.N,/Power distribution part/L1_SW*%
X127560000Y-110290000D03*
%TO.P,K205,11b*%
X120060000Y-110290000D03*
%TO.P,K205,12a*%
%TO.N,unconnected-(K205-Pad12a)*%
X127560000Y-105290000D03*
%TO.P,K205,12b*%
%TO.N,unconnected-(K205-Pad12b)*%
X120060000Y-105290000D03*
%TO.P,K205,14a*%
%TO.N,L1*%
X127560000Y-115290000D03*
%TO.P,K205,14b*%
X120060000Y-115290000D03*
%TO.P,K205,A1*%
%TO.N,24VR*%
X127560000Y-90290000D03*
%TO.P,K205,A2*%
%TO.N,Relais_1*%
X120060000Y-90290000D03*
%TD*%
D12*
%TO.P,U203,1*%
%TO.N,Net-(D206-K)*%
X147940000Y-98980000D03*
D13*
%TO.P,U203,2*%
%TO.N,Net-(D206-A)*%
X150480000Y-98980000D03*
%TO.P,U203,3*%
%TO.N,GND*%
X150480000Y-91360000D03*
%TO.P,U203,4*%
%TO.N,L1_Sense*%
X147940000Y-91360000D03*
%TD*%
D15*
%TO.P,J204,1*%
%TO.N,24VR*%
X241920000Y-87550000D03*
%TO.P,J204,2*%
%TO.N,+24V*%
X241920000Y-82470000D03*
%TD*%
D32*
%TO.P,R212,1*%
%TO.N,L2_Sense*%
X183500000Y-89012500D03*
%TO.P,R212,2*%
%TO.N,+3V3*%
X183500000Y-86087500D03*
%TD*%
D15*
%TO.P,J205,1*%
%TO.N,/Power distribution part/L1_OUT*%
X164450000Y-148510000D03*
%TO.P,J205,2*%
%TO.N,/Power distribution part/L2_OUT*%
X172070000Y-148510000D03*
%TO.P,J205,3*%
%TO.N,/Power distribution part/L3_OUT*%
X179690000Y-148510000D03*
%TD*%
D13*
%TO.P,C201,1*%
%TO.N,PE*%
X65644000Y-123110000D03*
%TO.P,C201,2*%
%TO.N,N*%
X80644000Y-123110000D03*
%TD*%
D20*
%TO.P,R303,1*%
%TO.N,+3V3*%
X236840000Y-58340000D03*
%TO.P,R303,2*%
%TO.N,Door_Contact*%
X236840000Y-61265000D03*
%TD*%
D25*
%TO.P,J307,1,1*%
%TO.N,ENC_CLK*%
X136256000Y-55800000D03*
%TO.P,J307,2,2*%
%TO.N,ENC_DT*%
X134756000Y-55800000D03*
%TO.P,J307,3,3*%
%TO.N,ENC_SWITCH*%
X133256000Y-55800000D03*
%TO.P,J307,4,4*%
%TO.N,ENC_VCC*%
X131756000Y-55800000D03*
%TO.P,J307,5,5*%
%TO.N,GND*%
X130256000Y-55800000D03*
%TD*%
D20*
%TO.P,R202,1*%
%TO.N,24V_FB*%
X247000000Y-73387500D03*
%TO.P,R202,2*%
%TO.N,GND*%
X247000000Y-76312500D03*
%TD*%
D32*
%TO.P,R213,1*%
%TO.N,L3_Sense*%
X220330000Y-89012500D03*
%TO.P,R213,2*%
%TO.N,+3V3*%
X220330000Y-86087500D03*
%TD*%
D15*
%TO.P,J206,1*%
%TO.N,Light_out*%
X118730000Y-148510000D03*
%TO.P,J206,2*%
%TO.N,L1*%
X126350000Y-148510000D03*
%TO.P,J206,3*%
%TO.N,Net-(F202-Pad2)*%
X133970000Y-148510000D03*
%TD*%
D33*
%TO.P,R203,1*%
%TO.N,+5V*%
X113457500Y-52498000D03*
%TO.P,R203,2*%
%TO.N,Net-(D204-A)*%
X116382500Y-52498000D03*
%TD*%
D34*
%TO.P,L203,1,1*%
%TO.N,Net-(D203-K)*%
X100990000Y-59610000D03*
%TO.P,L203,2,2*%
%TO.N,+5V*%
X105990000Y-59610000D03*
%TD*%
D26*
%TO.P,J305,1,1*%
%TO.N,KTY_Room*%
X224382000Y-74030000D03*
D27*
%TO.P,J305,2,2*%
%TO.N,GND*%
X222882000Y-74030000D03*
%TD*%
D20*
%TO.P,R304,1*%
%TO.N,+3V3*%
X239380000Y-58340000D03*
%TO.P,R304,2*%
%TO.N,KTY_Oven*%
X239380000Y-61265000D03*
%TD*%
%TO.P,R302,1*%
%TO.N,+3V3*%
X234300000Y-58340000D03*
%TO.P,R302,2*%
%TO.N,Standby_OnOff*%
X234300000Y-61265000D03*
%TD*%
D21*
%TO.P,F202,1*%
%TO.N,L1_ON*%
X91986000Y-135048000D03*
%TO.P,F202,2*%
%TO.N,Net-(F202-Pad2)*%
X114486000Y-135048000D03*
%TD*%
D20*
%TO.P,R301,1*%
%TO.N,+3V3*%
X231760000Y-58340000D03*
%TO.P,R301,2*%
%TO.N,Light_OnOff*%
X231760000Y-61265000D03*
%TD*%
D32*
%TO.P,R308,1*%
%TO.N,+3V3*%
X227696000Y-80122500D03*
%TO.P,R308,2*%
%TO.N,KTY_Room*%
X227696000Y-77197500D03*
%TD*%
D22*
%TO.P,D201,1,K*%
%TO.N,24VR*%
X126310000Y-85010000D03*
%TO.P,D201,2,A*%
%TO.N,Relais_1*%
X121310000Y-85010000D03*
%TD*%
D17*
%TO.P,L202,1,1*%
%TO.N,/Power distribution part/L2_OUT*%
X165820000Y-138710000D03*
%TO.P,L202,2,2*%
%TO.N,/Power distribution part/K204_Out*%
X176320000Y-119710000D03*
%TD*%
D32*
%TO.P,R201,1*%
%TO.N,24VR*%
X244460000Y-76312500D03*
%TO.P,R201,2*%
%TO.N,24V_FB*%
X244460000Y-73387500D03*
%TD*%
D17*
%TO.P,K204,11a*%
%TO.N,/Power distribution part/L2_SW*%
X178300000Y-110330000D03*
%TO.P,K204,11b*%
X170800000Y-110330000D03*
%TO.P,K204,12a*%
%TO.N,unconnected-(K204-Pad12a)*%
X178300000Y-105330000D03*
%TO.P,K204,12b*%
%TO.N,unconnected-(K204-Pad12b)*%
X170800000Y-105330000D03*
%TO.P,K204,14a*%
%TO.N,/Power distribution part/K204_Out*%
X178300000Y-115330000D03*
%TO.P,K204,14b*%
X170800000Y-115330000D03*
%TO.P,K204,A1*%
%TO.N,24VR*%
X178300000Y-90330000D03*
%TO.P,K204,A2*%
%TO.N,Relais_2*%
X170800000Y-90330000D03*
%TD*%
D32*
%TO.P,R211,1*%
%TO.N,L1_Sense*%
X147940000Y-87742500D03*
%TO.P,R211,2*%
%TO.N,+3V3*%
X147940000Y-84817500D03*
%TD*%
D35*
%TO.P,U302,1,3V3*%
%TO.N,+3V3*%
X201270000Y-49450000D03*
D36*
%TO.P,U302,2,EN*%
%TO.N,unconnected-(U302-EN-Pad2)*%
X198730000Y-49450000D03*
%TO.P,U302,3,SENSOR_VP*%
%TO.N,I_L1*%
X196190000Y-49450000D03*
%TO.P,U302,4,SENSOR_VN*%
%TO.N,I_L2*%
X193650000Y-49450000D03*
%TO.P,U302,5,IO34*%
%TO.N,I_L3*%
X191110000Y-49450000D03*
%TO.P,U302,6,IO35*%
%TO.N,24V_FB*%
X188570000Y-49450000D03*
%TO.P,U302,7,IO32*%
%TO.N,L1_Sense*%
X186030000Y-49450000D03*
%TO.P,U302,8,IO33*%
%TO.N,L2_Sense*%
X183490000Y-49450000D03*
%TO.P,U302,9,IO25*%
%TO.N,L3_Sense*%
X180950000Y-49450000D03*
%TO.P,U302,10,IO26*%
%TO.N,/Controller part/R1_3V3*%
X178410000Y-49450000D03*
%TO.P,U302,11,IO27*%
%TO.N,/Controller part/R2_3V3*%
X175870000Y-49450000D03*
%TO.P,U302,12,IO14*%
%TO.N,/Controller part/R3_3V3*%
X173330000Y-49450000D03*
%TO.P,U302,13,IO12*%
%TO.N,Light_OnOff*%
X170790000Y-49450000D03*
%TO.P,U302,14,GND1*%
%TO.N,GND*%
X168250000Y-49450000D03*
%TO.P,U302,15,IO13*%
%TO.N,Standby_OnOff*%
X165710000Y-49450000D03*
%TO.P,U302,16,SD2*%
%TO.N,unconnected-(U302-SD2-Pad16)*%
X163170000Y-49450000D03*
%TO.P,U302,17,SD3*%
%TO.N,unconnected-(U302-SD3-Pad17)*%
X160630000Y-49450000D03*
%TO.P,U302,18,CMD*%
%TO.N,unconnected-(U302-CMD-Pad18)*%
X158090000Y-49450000D03*
%TO.P,U302,19,EXT_5V*%
%TO.N,+5V*%
X155550000Y-49450000D03*
%TO.P,U302,20,CLK*%
%TO.N,unconnected-(U302-CLK-Pad20)*%
X155550000Y-74850000D03*
%TO.P,U302,21,SD0*%
%TO.N,unconnected-(U302-SD0-Pad21)*%
X158090000Y-74850000D03*
%TO.P,U302,22,SD1*%
%TO.N,unconnected-(U302-SD1-Pad22)*%
X160630000Y-74850000D03*
%TO.P,U302,23,IO15*%
%TO.N,Door_Contact*%
X163170000Y-74850000D03*
%TO.P,U302,24,IO2*%
%TO.N,/Controller part/Summer_3V3*%
X165710000Y-74850000D03*
%TO.P,U302,25,IO0*%
%TO.N,KTY_Room*%
X168250000Y-74850000D03*
%TO.P,U302,26,IO4*%
%TO.N,KTY_Oven*%
X170790000Y-74850000D03*
%TO.P,U302,27,IO16*%
%TO.N,ENC_VCC*%
X173330000Y-74850000D03*
%TO.P,U302,28,IO17*%
%TO.N,ENC_DT*%
X175870000Y-74850000D03*
%TO.P,U302,29,IO5*%
%TO.N,ENC_CLK*%
X178410000Y-74850000D03*
%TO.P,U302,30,IO18*%
%TO.N,ENC_SWITCH*%
X180950000Y-74850000D03*
%TO.P,U302,31,IO19*%
%TO.N,/Controller part/LCDBL_3V3*%
X183490000Y-74850000D03*
%TO.P,U302,32,GND2*%
%TO.N,GND*%
X186030000Y-74850000D03*
%TO.P,U302,33,IO21*%
%TO.N,SDA*%
X188570000Y-74850000D03*
%TO.P,U302,34,RXD0*%
%TO.N,unconnected-(U302-RXD0-Pad34)*%
X191110000Y-74850000D03*
%TO.P,U302,35,TXD0*%
%TO.N,unconnected-(U302-TXD0-Pad35)*%
X193650000Y-74850000D03*
%TO.P,U302,36,IO22*%
%TO.N,SCL*%
X196190000Y-74850000D03*
%TO.P,U302,37,IO23*%
%TO.N,unconnected-(U302-IO23-Pad37)*%
X198730000Y-74850000D03*
%TO.P,U302,38,GND3*%
%TO.N,GND*%
X201270000Y-74850000D03*
%TD*%
D32*
%TO.P,R310,1*%
%TO.N,+3V3*%
X150480000Y-60310500D03*
%TO.P,R310,2*%
%TO.N,ENC_SWITCH*%
X150480000Y-57385500D03*
%TD*%
D22*
%TO.P,D205,1,K*%
%TO.N,24VR*%
X111070000Y-85010000D03*
%TO.P,D205,2,A*%
%TO.N,Relais_3*%
X106070000Y-85010000D03*
%TD*%
D13*
%TO.P,C203,1*%
%TO.N,PE*%
X65644000Y-132000000D03*
%TO.P,C203,2*%
%TO.N,L1_ON*%
X80644000Y-132000000D03*
%TD*%
D18*
%TO.P,U206,1,VCC*%
%TO.N,+3V3*%
X206360000Y-129460000D03*
D19*
%TO.P,U206,2,GND*%
%TO.N,GND*%
X207630000Y-129460000D03*
%TO.P,U206,3,OUT*%
%TO.N,I_L3*%
X208900000Y-129460000D03*
%TD*%
D20*
%TO.P,R210,1*%
%TO.N,N*%
X100315000Y-97517500D03*
%TO.P,R210,2*%
%TO.N,Net-(D206-A)*%
X100315000Y-100442500D03*
%TD*%
D17*
%TO.P,U201,1,AC/L*%
%TO.N,L1_ON*%
X90630000Y-103740000D03*
%TO.P,U201,2,AC/N*%
%TO.N,N*%
X80630000Y-103740000D03*
%TO.P,U201,3,PE*%
%TO.N,PE*%
X70630000Y-103740000D03*
%TO.P,U201,4,-Vo*%
%TO.N,GND*%
X88630000Y-63740000D03*
%TO.P,U201,5,+Vo*%
%TO.N,+24V*%
X72630000Y-63740000D03*
%TD*%
D31*
%TO.P,C204,1*%
%TO.N,+24V*%
X74452323Y-53260000D03*
D29*
%TO.P,C204,2*%
%TO.N,GND*%
X79452323Y-53260000D03*
%TD*%
D37*
%TO.N,GND*%
X155560000Y-59864000D03*
X222870000Y-79168000D03*
X207630000Y-127428000D03*
X135240000Y-127428000D03*
X168250000Y-53768000D03*
X150480000Y-64944000D03*
X150480000Y-75612000D03*
X168260000Y-61896000D03*
X170800000Y-127428000D03*
X155560000Y-53768000D03*
X155560000Y-64944000D03*
X150480000Y-77644000D03*
X160640000Y-64944000D03*
X150480000Y-74088000D03*
X163180000Y-59864000D03*
X186040000Y-78152000D03*
X163180000Y-53768000D03*
X150480000Y-62912000D03*
%TO.N,+24V*%
X152766000Y-49958000D03*
%TO.N,Relais_1*%
X156830000Y-83105000D03*
X191755000Y-83105000D03*
X141336000Y-83105000D03*
X118730000Y-83740000D03*
%TO.N,Relais_2*%
X207690001Y-85070001D03*
X132700000Y-85010000D03*
X170800000Y-85010000D03*
%TO.N,Relais_3*%
X128636000Y-81200000D03*
%TO.N,+3V3*%
X183500000Y-81200000D03*
X234935000Y-82470000D03*
X235570000Y-129460000D03*
X220330000Y-82470000D03*
X203820000Y-82470000D03*
X147940000Y-81200000D03*
X227696000Y-82470000D03*
%TO.N,Door_Contact*%
X163170000Y-65452000D03*
X236840000Y-62785000D03*
%TO.N,24V_FB*%
X188570000Y-55800000D03*
X239380000Y-56308000D03*
%TO.N,Light_OnOff*%
X170790000Y-58340000D03*
X231760000Y-62785000D03*
%TO.N,Standby_OnOff*%
X165710000Y-59356000D03*
X234300000Y-62785000D03*
%TO.N,L1_Sense*%
X146924000Y-65452000D03*
X186040000Y-65960000D03*
%TO.N,L3_Sense*%
X218552000Y-71548000D03*
X182484000Y-63420000D03*
%TO.N,SCL*%
X143876000Y-62912000D03*
X192898000Y-70278000D03*
%TO.N,SDA*%
X188570000Y-72056000D03*
X140828000Y-63928000D03*
%TO.N,I_L1*%
X232395000Y-131580000D03*
X224140000Y-63354000D03*
X196200000Y-63420000D03*
%TO.N,ENC_SWITCH*%
X180960000Y-56816000D03*
X153020000Y-56308000D03*
%TO.N,/Controller part/R2_3V3*%
X175870000Y-69516000D03*
%TO.N,I_L2*%
X233665000Y-131365000D03*
X224140000Y-59356000D03*
X193660000Y-59356000D03*
%TO.N,ENC_DT*%
X138796000Y-58340000D03*
X174356000Y-59356000D03*
%TO.N,/Controller part/R3_3V3*%
X173330000Y-69516000D03*
%TO.N,/Controller part/LCDBL_3V3*%
X183490000Y-70024000D03*
%TO.N,ENC_CLK*%
X143876000Y-57324000D03*
X179436000Y-57324000D03*
%TO.N,/Controller part/R1_3V3*%
X178410000Y-69516000D03*
%TO.N,I_L3*%
X224140000Y-64604003D03*
X191110000Y-63420000D03*
X231545000Y-129852000D03*
%TO.N,ENC_VCC*%
X172324000Y-55292000D03*
%TO.N,KTY_Oven*%
X170790000Y-65452000D03*
X239380000Y-62785000D03*
%TD*%
D38*
%TO.N,GND*%
X150480000Y-75612000D02*
X150480000Y-77644000D01*
X150480000Y-75612000D02*
X150480000Y-74088000D01*
X150480000Y-70024000D02*
X150480000Y-74088000D01*
X150480000Y-77644000D02*
X150480000Y-91360000D01*
D39*
X207630000Y-129460000D02*
X207630000Y-127428000D01*
X245730000Y-98980000D02*
X247000000Y-97710000D01*
D38*
X168250000Y-61886000D02*
X168260000Y-61896000D01*
X222865000Y-79173000D02*
X222870000Y-79168000D01*
D39*
X135240000Y-127428000D02*
X135240000Y-129460000D01*
D38*
X168250000Y-49450000D02*
X168250000Y-53768000D01*
X222865000Y-91355000D02*
X222865000Y-79173000D01*
D40*
X170800000Y-129460000D02*
X170800000Y-127428000D01*
D39*
X241920000Y-98980000D02*
X245730000Y-98980000D01*
D38*
X186030000Y-74850000D02*
X186030000Y-78142000D01*
X186035000Y-91360000D02*
X186035000Y-78157000D01*
X186035000Y-78157000D02*
X186040000Y-78152000D01*
X186030000Y-78142000D02*
X186040000Y-78152000D01*
X168250000Y-53768000D02*
X168250000Y-61886000D01*
D39*
X247000000Y-97710000D02*
X247000000Y-76312500D01*
D41*
%TO.N,+24V*%
X102220000Y-49450000D02*
X102220000Y-53260000D01*
D38*
X74452323Y-61917677D02*
X72630000Y-63740000D01*
X102474000Y-49196000D02*
X152004000Y-49196000D01*
X74452323Y-51817677D02*
X77074000Y-49196000D01*
X74452323Y-53260000D02*
X74452323Y-51817677D01*
X152004000Y-49196000D02*
X152766000Y-49958000D01*
X77074000Y-49196000D02*
X101966000Y-49196000D01*
D41*
X101966000Y-49196000D02*
X102220000Y-49450000D01*
X102220000Y-49450000D02*
X102474000Y-49196000D01*
D38*
X74452323Y-53260000D02*
X74452323Y-61917677D01*
D41*
%TO.N,+5V*%
X131248000Y-62120000D02*
X131248000Y-60952000D01*
X105990000Y-57110000D02*
X105990000Y-59610000D01*
X113457500Y-53452500D02*
X112380000Y-54530000D01*
D39*
X111020785Y-68970215D02*
X111110000Y-68881000D01*
D41*
X111020785Y-72945000D02*
X111020785Y-68970215D01*
X129906000Y-51990000D02*
X127620000Y-54276000D01*
X112380000Y-54530000D02*
X112380000Y-57324000D01*
X155550000Y-49450000D02*
X155550000Y-49968000D01*
X112380000Y-57324000D02*
X112380000Y-59610000D01*
X107320000Y-55780000D02*
X105990000Y-57110000D01*
X112380000Y-59610000D02*
X112380000Y-67611000D01*
X127620000Y-54276000D02*
X127620000Y-57324000D01*
X127620000Y-57324000D02*
X112380000Y-57324000D01*
X131248000Y-60952000D02*
X127620000Y-57324000D01*
X155550000Y-49968000D02*
X153528000Y-51990000D01*
X107320000Y-53260000D02*
X107320000Y-55780000D01*
X113457500Y-52498000D02*
X113457500Y-53452500D01*
X112380000Y-67611000D02*
X111110000Y-68881000D01*
X112380000Y-59610000D02*
X105990000Y-59610000D01*
X153528000Y-51990000D02*
X129906000Y-51990000D01*
%TO.N,Relais_1*%
X121310000Y-89040000D02*
X120060000Y-90290000D01*
X121310000Y-85010000D02*
X121310000Y-89040000D01*
D40*
X156890000Y-83165000D02*
X156830000Y-83105000D01*
D41*
X121310000Y-85010000D02*
X120000000Y-85010000D01*
X120000000Y-85010000D02*
X118730000Y-83740000D01*
X192450000Y-83800000D02*
X191755000Y-83105000D01*
X192450000Y-90290000D02*
X192450000Y-83800000D01*
X141336000Y-76120000D02*
X141336000Y-83105000D01*
X156890000Y-90290000D02*
X156890000Y-83165000D01*
X138796000Y-76120000D02*
X141336000Y-76120000D01*
%TO.N,Relais_2*%
X136550000Y-89040000D02*
X135300000Y-90290000D01*
X133716000Y-76120000D02*
X136256000Y-76120000D01*
X136256000Y-79422000D02*
X136256000Y-76120000D01*
X136550000Y-85010000D02*
X136550000Y-79716000D01*
X136550000Y-79716000D02*
X136256000Y-79422000D01*
X136550000Y-85010000D02*
X136550000Y-89040000D01*
X170800000Y-90330000D02*
X170800000Y-85010000D01*
X132700000Y-85010000D02*
X136550000Y-85010000D01*
X207690000Y-90290000D02*
X207690001Y-85070001D01*
D42*
%TO.N,L1_ON*%
X90630000Y-103740000D02*
X90630000Y-112910000D01*
X92060000Y-115490000D02*
X92060000Y-125650000D01*
X92060000Y-125650000D02*
X92060000Y-123110000D01*
X90670000Y-112950000D02*
X90670000Y-114100000D01*
X91986000Y-126740000D02*
X91986000Y-135048000D01*
X92060000Y-125650000D02*
X92060000Y-126666000D01*
X90670000Y-114100000D02*
X92060000Y-115490000D01*
X90630000Y-112910000D02*
X90670000Y-112950000D01*
X92060000Y-126666000D02*
X91986000Y-126740000D01*
D41*
%TO.N,Relais_3*%
X131176000Y-76120000D02*
X128636000Y-76120000D01*
D40*
X106070000Y-89040000D02*
X104820000Y-90290000D01*
X106070000Y-85010000D02*
X106070000Y-89040000D01*
D41*
X128636000Y-76120000D02*
X128636000Y-81200000D01*
%TO.N,Net-(D203-K)*%
X95870000Y-54530000D02*
X97140000Y-54530000D01*
X103920000Y-53260000D02*
X103920000Y-55624000D01*
X97140000Y-54530000D02*
X99680000Y-57070000D01*
X100950000Y-57070000D02*
X100990000Y-57110000D01*
X102474000Y-57070000D02*
X100950000Y-57070000D01*
X100990000Y-57110000D02*
X100990000Y-59610000D01*
X103920000Y-55624000D02*
X102474000Y-57070000D01*
X99680000Y-57070000D02*
X100950000Y-57070000D01*
D42*
%TO.N,N*%
X95870000Y-148510000D02*
X103490000Y-148510000D01*
X80644000Y-113980000D02*
X80644000Y-118284000D01*
X103490000Y-148510000D02*
X111110000Y-148510000D01*
X89520000Y-140890000D02*
X90790000Y-142160000D01*
X80630000Y-113966000D02*
X80644000Y-113980000D01*
X95870000Y-143430000D02*
X95870000Y-148510000D01*
X80644000Y-123110000D02*
X80630000Y-123110000D01*
X84186000Y-118284000D02*
X80644000Y-118284000D01*
D41*
X80630000Y-100250000D02*
X80630000Y-103740000D01*
D42*
X75670000Y-112950000D02*
X80630000Y-112950000D01*
D41*
X83362500Y-97517500D02*
X80630000Y-100250000D01*
D42*
X80630000Y-123110000D02*
X73137000Y-130603000D01*
X80644000Y-118284000D02*
X80644000Y-123110000D01*
X94600000Y-142160000D02*
X95870000Y-143430000D01*
X77709000Y-140890000D02*
X89520000Y-140890000D01*
D41*
X100315000Y-97517500D02*
X83362500Y-97517500D01*
D42*
X73137000Y-136318000D02*
X77709000Y-140890000D01*
X90790000Y-142160000D02*
X94600000Y-142160000D01*
X80630000Y-112950000D02*
X80630000Y-113966000D01*
X73137000Y-130603000D02*
X73137000Y-136318000D01*
X80630000Y-103740000D02*
X80630000Y-112950000D01*
X84567000Y-118665000D02*
X84186000Y-118284000D01*
D39*
%TO.N,Net-(D204-A)*%
X123020000Y-52440000D02*
X116440500Y-52440000D01*
X116440500Y-52440000D02*
X116382500Y-52498000D01*
D42*
%TO.N,L3*%
X192450000Y-115290000D02*
X199950000Y-115290000D01*
D43*
X156830000Y-152320000D02*
X158862000Y-154352000D01*
X158862000Y-154352000D02*
X185278000Y-154352000D01*
X156830000Y-148510000D02*
X156830000Y-152320000D01*
X185278000Y-154352000D02*
X187945000Y-151685000D01*
X187945000Y-140255000D02*
X192450000Y-135750000D01*
X187945000Y-151685000D02*
X187945000Y-140255000D01*
X192450000Y-135750000D02*
X192450000Y-115290000D01*
D42*
%TO.N,/Power distribution part/L1_SW*%
X135300000Y-110290000D02*
X142800000Y-110290000D01*
X120060000Y-110290000D02*
X127560000Y-110290000D01*
X127560000Y-110290000D02*
X135300000Y-110290000D01*
D43*
%TO.N,L2*%
X149210000Y-138350000D02*
X149210000Y-148510000D01*
X156890000Y-115290000D02*
X156890000Y-130670000D01*
D42*
X156890000Y-115290000D02*
X164390000Y-115290000D01*
D43*
X156890000Y-130670000D02*
X149210000Y-138350000D01*
D42*
%TO.N,/Power distribution part/L2_SW*%
X164390000Y-110290000D02*
X170760000Y-110290000D01*
X170800000Y-110330000D02*
X178300000Y-110330000D01*
X156890000Y-110290000D02*
X164390000Y-110290000D01*
X170760000Y-110290000D02*
X170800000Y-110330000D01*
%TO.N,/Power distribution part/L3_SW*%
X207690000Y-110290000D02*
X215190000Y-110290000D01*
X199950000Y-110290000D02*
X207690000Y-110290000D01*
X192450000Y-110290000D02*
X199950000Y-110290000D01*
D43*
%TO.N,L1*%
X123175000Y-128825000D02*
X127560000Y-124440000D01*
X126350000Y-148510000D02*
X123175000Y-145335000D01*
X127560000Y-124440000D02*
X127560000Y-115290000D01*
D42*
X104820000Y-115290000D02*
X112320000Y-115290000D01*
D43*
X123175000Y-145335000D02*
X123175000Y-128825000D01*
D42*
X112320000Y-115290000D02*
X120060000Y-115290000D01*
D41*
%TO.N,+3V3*%
X201280000Y-49460000D02*
X201280000Y-71548000D01*
X147940000Y-81200000D02*
X147940000Y-84817500D01*
D39*
X236840000Y-58340000D02*
X234300000Y-58340000D01*
D40*
X143876000Y-58909500D02*
X147878500Y-58909500D01*
X146477500Y-53321500D02*
X147940000Y-54784000D01*
D41*
X148448000Y-59356000D02*
X147940000Y-58848000D01*
D40*
X143876000Y-53321500D02*
X146477500Y-53321500D01*
X234935000Y-82470000D02*
X234935000Y-128825000D01*
D39*
X239380000Y-58340000D02*
X236840000Y-58340000D01*
D41*
X148448000Y-80692000D02*
X148448000Y-60372000D01*
X147878500Y-58909500D02*
X147940000Y-58848000D01*
D39*
X231760000Y-58340000D02*
X230490000Y-58340000D01*
D41*
X203820000Y-74088000D02*
X203820000Y-82470000D01*
D39*
X143876000Y-58909500D02*
X140828000Y-58909500D01*
D41*
X201270000Y-49450000D02*
X201280000Y-49460000D01*
D39*
X143876000Y-53321500D02*
X140828000Y-53321500D01*
D40*
X183500000Y-86087500D02*
X183500000Y-85525000D01*
D41*
X147940000Y-58848000D02*
X147940000Y-54784000D01*
D40*
X234935000Y-67865000D02*
X229855000Y-62785000D01*
D41*
X201280000Y-71548000D02*
X203820000Y-74088000D01*
D40*
X234935000Y-128825000D02*
X235570000Y-129460000D01*
X220330000Y-86087500D02*
X220330000Y-82470000D01*
D41*
X147940000Y-81200000D02*
X148448000Y-80692000D01*
D40*
X229855000Y-58975000D02*
X230490000Y-58340000D01*
D41*
X148448000Y-60372000D02*
X148448000Y-59356000D01*
D40*
X183500000Y-85525000D02*
X183500000Y-81200000D01*
D39*
X150480000Y-60310500D02*
X148509500Y-60310500D01*
D40*
X234935000Y-82470000D02*
X234935000Y-67865000D01*
D39*
X227696000Y-80122500D02*
X227696000Y-82470000D01*
D40*
X229855000Y-62785000D02*
X229855000Y-58975000D01*
D39*
X231760000Y-58340000D02*
X234300000Y-58340000D01*
X148509500Y-60310500D02*
X148448000Y-60372000D01*
D42*
%TO.N,PE*%
X73010000Y-148510000D02*
X80630000Y-148510000D01*
D44*
X65644000Y-123110000D02*
X65644000Y-108726000D01*
X65644000Y-141144000D02*
X73010000Y-148510000D01*
X65644000Y-123110000D02*
X65644000Y-141144000D01*
X65644000Y-108726000D02*
X70630000Y-103740000D01*
D42*
X80630000Y-148510000D02*
X88250000Y-148510000D01*
D39*
%TO.N,Door_Contact*%
X236840000Y-61265000D02*
X236840000Y-62785000D01*
X238745000Y-102155000D02*
X241920000Y-105330000D01*
X236840000Y-62785000D02*
X238745000Y-64690000D01*
X163170000Y-74850000D02*
X163170000Y-65452000D01*
X238745000Y-64690000D02*
X238745000Y-102155000D01*
%TO.N,24VR*%
X244460000Y-76312500D02*
X244460000Y-85010000D01*
D41*
X126310000Y-85010000D02*
X126310000Y-82430000D01*
D40*
X111070000Y-89040000D02*
X112320000Y-90290000D01*
D41*
X141550000Y-89040000D02*
X142800000Y-90290000D01*
X126310000Y-89040000D02*
X127560000Y-90290000D01*
X123556000Y-79676000D02*
X123556000Y-76120000D01*
D40*
X111070000Y-85010000D02*
X111070000Y-89040000D01*
D41*
X141550000Y-85010000D02*
X141550000Y-89040000D01*
X126310000Y-85010000D02*
X126310000Y-89040000D01*
X126310000Y-82430000D02*
X123556000Y-79676000D01*
D39*
X244460000Y-85010000D02*
X241920000Y-87550000D01*
D41*
%TO.N,Net-(D206-A)*%
X215250000Y-98980000D02*
X217155000Y-100885000D01*
X146035000Y-101520000D02*
X149845000Y-101520000D01*
X186035000Y-98980000D02*
X215250000Y-98980000D01*
X102662500Y-100442500D02*
X104125000Y-98980000D01*
X217155000Y-100885000D02*
X222235000Y-100885000D01*
X104125000Y-98980000D02*
X143495000Y-98980000D01*
X143495000Y-98980000D02*
X146035000Y-101520000D01*
X181595000Y-101520000D02*
X185405000Y-101520000D01*
X150480000Y-98980000D02*
X179055000Y-98980000D01*
X149845000Y-101520000D02*
X150480000Y-100885000D01*
X100315000Y-100442500D02*
X102662500Y-100442500D01*
X150480000Y-100885000D02*
X150480000Y-98980000D01*
X186040000Y-100885000D02*
X186035000Y-100880000D01*
X179055000Y-98980000D02*
X181595000Y-101520000D01*
X222865000Y-100255000D02*
X222865000Y-98975000D01*
X185405000Y-101520000D02*
X186040000Y-100885000D01*
X186035000Y-100880000D02*
X186035000Y-98980000D01*
X222235000Y-100885000D02*
X222865000Y-100255000D01*
D45*
%TO.N,24V_FB*%
X244460000Y-73387500D02*
X244460000Y-61388000D01*
D39*
X188570000Y-49450000D02*
X188570000Y-55800000D01*
D45*
X244460000Y-61388000D02*
X239380000Y-56308000D01*
X244460000Y-73387500D02*
X247000000Y-73387500D01*
D42*
%TO.N,/Power distribution part/K202_Out*%
X207690000Y-115290000D02*
X212964000Y-115290000D01*
X213150000Y-119710000D02*
X213150000Y-115476000D01*
X212964000Y-115290000D02*
X215190000Y-115290000D01*
X213150000Y-115476000D02*
X212964000Y-115290000D01*
%TO.N,/Power distribution part/K204_Out*%
X176320000Y-119710000D02*
X176320000Y-115398000D01*
X170800000Y-115330000D02*
X176388000Y-115330000D01*
X176388000Y-115330000D02*
X178300000Y-115330000D01*
X176320000Y-115398000D02*
X176388000Y-115330000D01*
%TO.N,/Power distribution part/K206_Out*%
X140760000Y-115358000D02*
X140828000Y-115290000D01*
X135300000Y-115290000D02*
X140828000Y-115290000D01*
X140828000Y-115290000D02*
X142800000Y-115290000D01*
X140760000Y-119710000D02*
X140760000Y-115358000D01*
D39*
%TO.N,Light_OnOff*%
X170790000Y-49450000D02*
X170790000Y-58340000D01*
X231760000Y-61265000D02*
X231760000Y-62785000D01*
X231760000Y-62785000D02*
X236205000Y-67230000D01*
X236205000Y-67230000D02*
X236205000Y-122475000D01*
X236205000Y-122475000D02*
X241920000Y-128190000D01*
%TO.N,Standby_OnOff*%
X237475000Y-112315000D02*
X241920000Y-116760000D01*
X234300000Y-61265000D02*
X234300000Y-62785000D01*
X234300000Y-62785000D02*
X237475000Y-65960000D01*
X237475000Y-65960000D02*
X237475000Y-112315000D01*
X165710000Y-59356000D02*
X165710000Y-49450000D01*
%TO.N,L1_Sense*%
X145908000Y-66468000D02*
X146924000Y-65452000D01*
X147940000Y-87742500D02*
X145908000Y-85710500D01*
X145908000Y-85710500D02*
X145908000Y-66468000D01*
X186030000Y-49450000D02*
X186030000Y-65950000D01*
X186030000Y-65950000D02*
X186040000Y-65960000D01*
X147940000Y-87742500D02*
X147940000Y-91360000D01*
%TO.N,L2_Sense*%
X182230000Y-76120000D02*
X181595000Y-76755000D01*
X182422500Y-89012500D02*
X183500000Y-89012500D01*
X181595000Y-88185000D02*
X182422500Y-89012500D01*
X182230000Y-66214000D02*
X182230000Y-76120000D01*
X184008000Y-54784000D02*
X184008000Y-64436000D01*
X183490000Y-49450000D02*
X183490000Y-54266000D01*
X183490000Y-54266000D02*
X184008000Y-54784000D01*
X183500000Y-91355000D02*
X183495000Y-91360000D01*
X181595000Y-76755000D02*
X181595000Y-88185000D01*
X184008000Y-64436000D02*
X182230000Y-66214000D01*
X183500000Y-89012500D02*
X183500000Y-91355000D01*
%TO.N,L3_Sense*%
X220330000Y-91350000D02*
X220325000Y-91355000D01*
X182484000Y-63420000D02*
X182484000Y-55800000D01*
X180950000Y-54266000D02*
X180950000Y-49450000D01*
X220330000Y-89012500D02*
X218552000Y-87234500D01*
X182484000Y-55800000D02*
X180950000Y-54266000D01*
X218552000Y-87234500D02*
X218552000Y-71548000D01*
X220330000Y-89012500D02*
X220330000Y-91350000D01*
%TO.N,SCL*%
X134472000Y-61896000D02*
X134248000Y-62120000D01*
X192898000Y-70278000D02*
X196190000Y-73570000D01*
X143876000Y-61834500D02*
X143876000Y-62912000D01*
X196190000Y-73570000D02*
X196190000Y-74850000D01*
%TO.N,SDA*%
X188570000Y-74850000D02*
X188570000Y-72056000D01*
X140828000Y-61834500D02*
X140828000Y-63928000D01*
D45*
%TO.N,I_L1*%
X224308003Y-63420000D02*
X224242003Y-63354000D01*
D39*
X225410000Y-63420000D02*
X224308003Y-63420000D01*
X196200000Y-63420000D02*
X196200000Y-61515000D01*
X232395000Y-131580000D02*
X232395000Y-70405000D01*
D45*
X224242003Y-63354000D02*
X224140000Y-63354000D01*
D39*
X232395000Y-70405000D02*
X225410000Y-63420000D01*
X196190000Y-61505000D02*
X196190000Y-49450000D01*
X196200000Y-61515000D02*
X196190000Y-61505000D01*
%TO.N,ENC_SWITCH*%
X151942500Y-57385500D02*
X153020000Y-56308000D01*
X180960000Y-66976000D02*
X180960000Y-56816000D01*
X150480000Y-57385500D02*
X151942500Y-57385500D01*
X180950000Y-66986000D02*
X180960000Y-66976000D01*
X180950000Y-74850000D02*
X180950000Y-66986000D01*
%TO.N,/Controller part/R2_3V3*%
X175870000Y-49450000D02*
X175870000Y-69516000D01*
%TO.N,I_L2*%
X193660000Y-55800000D02*
X193650000Y-55790000D01*
X224140000Y-59991000D02*
X233665000Y-69516000D01*
X224140000Y-59356000D02*
X224140000Y-59991000D01*
X193650000Y-59346000D02*
X193660000Y-59356000D01*
X193650000Y-55790000D02*
X193650000Y-49450000D01*
D45*
X233665000Y-131365000D02*
X233665000Y-69516000D01*
D39*
X193650000Y-55790000D02*
X193650000Y-59346000D01*
%TO.N,ENC_DT*%
X138796000Y-56816000D02*
X138796000Y-58340000D01*
X175870000Y-74850000D02*
X175870000Y-73570000D01*
X139365500Y-56246500D02*
X138796000Y-56816000D01*
X174356000Y-72056000D02*
X174356000Y-59356000D01*
X175870000Y-73570000D02*
X174356000Y-72056000D01*
X140828000Y-56246500D02*
X139365500Y-56246500D01*
%TO.N,/Controller part/R3_3V3*%
X173330000Y-49450000D02*
X173330000Y-69516000D01*
%TO.N,/Controller part/LCDBL_3V3*%
X183490000Y-70024000D02*
X183490000Y-74850000D01*
%TO.N,ENC_CLK*%
X178410000Y-74850000D02*
X178410000Y-73590000D01*
X143876000Y-56246500D02*
X143876000Y-57324000D01*
X178410000Y-73590000D02*
X179944000Y-72056000D01*
X179944000Y-57832000D02*
X179436000Y-57324000D01*
X179944000Y-72056000D02*
X179944000Y-57832000D01*
%TO.N,/Controller part/R1_3V3*%
X178410000Y-49450000D02*
X178410000Y-69516000D01*
%TO.N,I_L3*%
X231125000Y-71040000D02*
X224775000Y-64690000D01*
X224775000Y-64690000D02*
X224328000Y-64690000D01*
X231125000Y-129432000D02*
X231125000Y-71040000D01*
D45*
X224242003Y-64604003D02*
X224140000Y-64604003D01*
D39*
X191110000Y-49450000D02*
X191110000Y-63420000D01*
D45*
X224328000Y-64690000D02*
X224242003Y-64604003D01*
D39*
X231545000Y-129852000D02*
X231125000Y-129432000D01*
%TO.N,ENC_VCC*%
X173330000Y-74850000D02*
X173330000Y-73062000D01*
X173330000Y-73062000D02*
X172324000Y-72056000D01*
X172324000Y-72056000D02*
X172324000Y-55292000D01*
%TO.N,KTY_Oven*%
X240015000Y-91995000D02*
X241920000Y-93900000D01*
X239380000Y-62785000D02*
X240015000Y-63420000D01*
X240015000Y-63420000D02*
X240015000Y-91995000D01*
X239380000Y-61265000D02*
X239380000Y-62785000D01*
X170790000Y-65452000D02*
X170790000Y-74850000D01*
%TO.N,KTY_Room*%
X224382000Y-74030000D02*
X226114000Y-74030000D01*
X227696000Y-75612000D02*
X227696000Y-77197500D01*
X226114000Y-74030000D02*
X227696000Y-75612000D01*
D40*
%TO.N,Net-(U301-O7)*%
X116020785Y-72945000D02*
X124826000Y-72945000D01*
X124826000Y-72945000D02*
X126096000Y-74215000D01*
X126096000Y-76120000D02*
X126096000Y-74215000D01*
D42*
%TO.N,Net-(F201-Pad1)*%
X104820000Y-110290000D02*
X101070000Y-110290000D01*
X99680000Y-111680000D02*
X99680000Y-121332000D01*
X101070000Y-110290000D02*
X99680000Y-111680000D01*
X99680000Y-121332000D02*
X97394000Y-123618000D01*
X97394000Y-123618000D02*
X96759000Y-123618000D01*
X104820000Y-110290000D02*
X112320000Y-110290000D01*
D44*
%TO.N,Light_out*%
X111110000Y-144065000D02*
X114285000Y-144065000D01*
X115555000Y-123745000D02*
X108570000Y-130730000D01*
X108570000Y-130730000D02*
X108570000Y-141525000D01*
X114285000Y-144065000D02*
X118730000Y-148510000D01*
X108570000Y-141525000D02*
X111110000Y-144065000D01*
X119259000Y-123745000D02*
X115555000Y-123745000D01*
%TD*%
%TA.AperFunction,Conductor*%
%TO.N,GND*%
G36*
X164647039Y-52771685D02*
G01*
X164692794Y-52824489D01*
X164704000Y-52876000D01*
X164704000Y-60880000D01*
X166612000Y-60880000D01*
X166679039Y-60899685D01*
X166724794Y-60952489D01*
X166736000Y-61004000D01*
X166736000Y-64312000D01*
X166716315Y-64379039D01*
X166663511Y-64424794D01*
X166612000Y-64436000D01*
X161656000Y-64436000D01*
X161656000Y-72948000D01*
X161636315Y-73015039D01*
X161583511Y-73060794D01*
X161532000Y-73072000D01*
X149588000Y-73072000D01*
X149520961Y-73052315D01*
X149475206Y-72999511D01*
X149464000Y-72948000D01*
X149464000Y-62020000D01*
X149483685Y-61952961D01*
X149536489Y-61907206D01*
X149588000Y-61896000D01*
X152512000Y-61896000D01*
X152512000Y-58464000D01*
X152531685Y-58396961D01*
X152584489Y-58351206D01*
X152636000Y-58340000D01*
X154036000Y-58340000D01*
X154036000Y-52876000D01*
X154055685Y-52808961D01*
X154108489Y-52763206D01*
X154160000Y-52752000D01*
X164580000Y-52752000D01*
X164647039Y-52771685D01*
G37*
%TD.AperFunction*%
%TD*%
M02*
