%TF.GenerationSoftware,KiCad,Pcbnew,9.0.7*%
%TF.CreationDate,2026-02-09T15:58:26+01:00*%
%TF.ProjectId,SaunaPCB,5361756e-6150-4434-922e-6b696361645f,0.0.1*%
%TF.SameCoordinates,Original*%
%TF.FileFunction,Legend,Bot*%
%TF.FilePolarity,Positive*%
%FSLAX46Y46*%
G04 Gerber Fmt 4.6, Leading zero omitted, Abs format (unit mm)*
G04 Created by KiCad (PCBNEW 9.0.7) date 2026-02-09 15:58:26*
%MOMM*%
%LPD*%
G01*
G04 APERTURE LIST*
%ADD10C,0.150000*%
%ADD11C,0.120000*%
G04 APERTURE END LIST*
D10*
X147164819Y-103639524D02*
X146164819Y-103639524D01*
X146164819Y-103639524D02*
X146164819Y-103877619D01*
X146164819Y-103877619D02*
X146212438Y-104020476D01*
X146212438Y-104020476D02*
X146307676Y-104115714D01*
X146307676Y-104115714D02*
X146402914Y-104163333D01*
X146402914Y-104163333D02*
X146593390Y-104210952D01*
X146593390Y-104210952D02*
X146736247Y-104210952D01*
X146736247Y-104210952D02*
X146926723Y-104163333D01*
X146926723Y-104163333D02*
X147021961Y-104115714D01*
X147021961Y-104115714D02*
X147117200Y-104020476D01*
X147117200Y-104020476D02*
X147164819Y-103877619D01*
X147164819Y-103877619D02*
X147164819Y-103639524D01*
X146260057Y-104591905D02*
X146212438Y-104639524D01*
X146212438Y-104639524D02*
X146164819Y-104734762D01*
X146164819Y-104734762D02*
X146164819Y-104972857D01*
X146164819Y-104972857D02*
X146212438Y-105068095D01*
X146212438Y-105068095D02*
X146260057Y-105115714D01*
X146260057Y-105115714D02*
X146355295Y-105163333D01*
X146355295Y-105163333D02*
X146450533Y-105163333D01*
X146450533Y-105163333D02*
X146593390Y-105115714D01*
X146593390Y-105115714D02*
X147164819Y-104544286D01*
X147164819Y-104544286D02*
X147164819Y-105163333D01*
X146164819Y-105782381D02*
X146164819Y-105877619D01*
X146164819Y-105877619D02*
X146212438Y-105972857D01*
X146212438Y-105972857D02*
X146260057Y-106020476D01*
X146260057Y-106020476D02*
X146355295Y-106068095D01*
X146355295Y-106068095D02*
X146545771Y-106115714D01*
X146545771Y-106115714D02*
X146783866Y-106115714D01*
X146783866Y-106115714D02*
X146974342Y-106068095D01*
X146974342Y-106068095D02*
X147069580Y-106020476D01*
X147069580Y-106020476D02*
X147117200Y-105972857D01*
X147117200Y-105972857D02*
X147164819Y-105877619D01*
X147164819Y-105877619D02*
X147164819Y-105782381D01*
X147164819Y-105782381D02*
X147117200Y-105687143D01*
X147117200Y-105687143D02*
X147069580Y-105639524D01*
X147069580Y-105639524D02*
X146974342Y-105591905D01*
X146974342Y-105591905D02*
X146783866Y-105544286D01*
X146783866Y-105544286D02*
X146545771Y-105544286D01*
X146545771Y-105544286D02*
X146355295Y-105591905D01*
X146355295Y-105591905D02*
X146260057Y-105639524D01*
X146260057Y-105639524D02*
X146212438Y-105687143D01*
X146212438Y-105687143D02*
X146164819Y-105782381D01*
X146164819Y-106972857D02*
X146164819Y-106782381D01*
X146164819Y-106782381D02*
X146212438Y-106687143D01*
X146212438Y-106687143D02*
X146260057Y-106639524D01*
X146260057Y-106639524D02*
X146402914Y-106544286D01*
X146402914Y-106544286D02*
X146593390Y-106496667D01*
X146593390Y-106496667D02*
X146974342Y-106496667D01*
X146974342Y-106496667D02*
X147069580Y-106544286D01*
X147069580Y-106544286D02*
X147117200Y-106591905D01*
X147117200Y-106591905D02*
X147164819Y-106687143D01*
X147164819Y-106687143D02*
X147164819Y-106877619D01*
X147164819Y-106877619D02*
X147117200Y-106972857D01*
X147117200Y-106972857D02*
X147069580Y-107020476D01*
X147069580Y-107020476D02*
X146974342Y-107068095D01*
X146974342Y-107068095D02*
X146736247Y-107068095D01*
X146736247Y-107068095D02*
X146641009Y-107020476D01*
X146641009Y-107020476D02*
X146593390Y-106972857D01*
X146593390Y-106972857D02*
X146545771Y-106877619D01*
X146545771Y-106877619D02*
X146545771Y-106687143D01*
X146545771Y-106687143D02*
X146593390Y-106591905D01*
X146593390Y-106591905D02*
X146641009Y-106544286D01*
X146641009Y-106544286D02*
X146736247Y-106496667D01*
X212454819Y-99130952D02*
X211978628Y-98797619D01*
X212454819Y-98559524D02*
X211454819Y-98559524D01*
X211454819Y-98559524D02*
X211454819Y-98940476D01*
X211454819Y-98940476D02*
X211502438Y-99035714D01*
X211502438Y-99035714D02*
X211550057Y-99083333D01*
X211550057Y-99083333D02*
X211645295Y-99130952D01*
X211645295Y-99130952D02*
X211788152Y-99130952D01*
X211788152Y-99130952D02*
X211883390Y-99083333D01*
X211883390Y-99083333D02*
X211931009Y-99035714D01*
X211931009Y-99035714D02*
X211978628Y-98940476D01*
X211978628Y-98940476D02*
X211978628Y-98559524D01*
X211550057Y-99511905D02*
X211502438Y-99559524D01*
X211502438Y-99559524D02*
X211454819Y-99654762D01*
X211454819Y-99654762D02*
X211454819Y-99892857D01*
X211454819Y-99892857D02*
X211502438Y-99988095D01*
X211502438Y-99988095D02*
X211550057Y-100035714D01*
X211550057Y-100035714D02*
X211645295Y-100083333D01*
X211645295Y-100083333D02*
X211740533Y-100083333D01*
X211740533Y-100083333D02*
X211883390Y-100035714D01*
X211883390Y-100035714D02*
X212454819Y-99464286D01*
X212454819Y-99464286D02*
X212454819Y-100083333D01*
X211454819Y-100702381D02*
X211454819Y-100797619D01*
X211454819Y-100797619D02*
X211502438Y-100892857D01*
X211502438Y-100892857D02*
X211550057Y-100940476D01*
X211550057Y-100940476D02*
X211645295Y-100988095D01*
X211645295Y-100988095D02*
X211835771Y-101035714D01*
X211835771Y-101035714D02*
X212073866Y-101035714D01*
X212073866Y-101035714D02*
X212264342Y-100988095D01*
X212264342Y-100988095D02*
X212359580Y-100940476D01*
X212359580Y-100940476D02*
X212407200Y-100892857D01*
X212407200Y-100892857D02*
X212454819Y-100797619D01*
X212454819Y-100797619D02*
X212454819Y-100702381D01*
X212454819Y-100702381D02*
X212407200Y-100607143D01*
X212407200Y-100607143D02*
X212359580Y-100559524D01*
X212359580Y-100559524D02*
X212264342Y-100511905D01*
X212264342Y-100511905D02*
X212073866Y-100464286D01*
X212073866Y-100464286D02*
X211835771Y-100464286D01*
X211835771Y-100464286D02*
X211645295Y-100511905D01*
X211645295Y-100511905D02*
X211550057Y-100559524D01*
X211550057Y-100559524D02*
X211502438Y-100607143D01*
X211502438Y-100607143D02*
X211454819Y-100702381D01*
X211454819Y-101892857D02*
X211454819Y-101702381D01*
X211454819Y-101702381D02*
X211502438Y-101607143D01*
X211502438Y-101607143D02*
X211550057Y-101559524D01*
X211550057Y-101559524D02*
X211692914Y-101464286D01*
X211692914Y-101464286D02*
X211883390Y-101416667D01*
X211883390Y-101416667D02*
X212264342Y-101416667D01*
X212264342Y-101416667D02*
X212359580Y-101464286D01*
X212359580Y-101464286D02*
X212407200Y-101511905D01*
X212407200Y-101511905D02*
X212454819Y-101607143D01*
X212454819Y-101607143D02*
X212454819Y-101797619D01*
X212454819Y-101797619D02*
X212407200Y-101892857D01*
X212407200Y-101892857D02*
X212359580Y-101940476D01*
X212359580Y-101940476D02*
X212264342Y-101988095D01*
X212264342Y-101988095D02*
X212026247Y-101988095D01*
X212026247Y-101988095D02*
X211931009Y-101940476D01*
X211931009Y-101940476D02*
X211883390Y-101892857D01*
X211883390Y-101892857D02*
X211835771Y-101797619D01*
X211835771Y-101797619D02*
X211835771Y-101607143D01*
X211835771Y-101607143D02*
X211883390Y-101511905D01*
X211883390Y-101511905D02*
X211931009Y-101464286D01*
X211931009Y-101464286D02*
X212026247Y-101416667D01*
X182724819Y-103639524D02*
X181724819Y-103639524D01*
X181724819Y-103639524D02*
X181724819Y-103877619D01*
X181724819Y-103877619D02*
X181772438Y-104020476D01*
X181772438Y-104020476D02*
X181867676Y-104115714D01*
X181867676Y-104115714D02*
X181962914Y-104163333D01*
X181962914Y-104163333D02*
X182153390Y-104210952D01*
X182153390Y-104210952D02*
X182296247Y-104210952D01*
X182296247Y-104210952D02*
X182486723Y-104163333D01*
X182486723Y-104163333D02*
X182581961Y-104115714D01*
X182581961Y-104115714D02*
X182677200Y-104020476D01*
X182677200Y-104020476D02*
X182724819Y-103877619D01*
X182724819Y-103877619D02*
X182724819Y-103639524D01*
X181820057Y-104591905D02*
X181772438Y-104639524D01*
X181772438Y-104639524D02*
X181724819Y-104734762D01*
X181724819Y-104734762D02*
X181724819Y-104972857D01*
X181724819Y-104972857D02*
X181772438Y-105068095D01*
X181772438Y-105068095D02*
X181820057Y-105115714D01*
X181820057Y-105115714D02*
X181915295Y-105163333D01*
X181915295Y-105163333D02*
X182010533Y-105163333D01*
X182010533Y-105163333D02*
X182153390Y-105115714D01*
X182153390Y-105115714D02*
X182724819Y-104544286D01*
X182724819Y-104544286D02*
X182724819Y-105163333D01*
X181724819Y-105782381D02*
X181724819Y-105877619D01*
X181724819Y-105877619D02*
X181772438Y-105972857D01*
X181772438Y-105972857D02*
X181820057Y-106020476D01*
X181820057Y-106020476D02*
X181915295Y-106068095D01*
X181915295Y-106068095D02*
X182105771Y-106115714D01*
X182105771Y-106115714D02*
X182343866Y-106115714D01*
X182343866Y-106115714D02*
X182534342Y-106068095D01*
X182534342Y-106068095D02*
X182629580Y-106020476D01*
X182629580Y-106020476D02*
X182677200Y-105972857D01*
X182677200Y-105972857D02*
X182724819Y-105877619D01*
X182724819Y-105877619D02*
X182724819Y-105782381D01*
X182724819Y-105782381D02*
X182677200Y-105687143D01*
X182677200Y-105687143D02*
X182629580Y-105639524D01*
X182629580Y-105639524D02*
X182534342Y-105591905D01*
X182534342Y-105591905D02*
X182343866Y-105544286D01*
X182343866Y-105544286D02*
X182105771Y-105544286D01*
X182105771Y-105544286D02*
X181915295Y-105591905D01*
X181915295Y-105591905D02*
X181820057Y-105639524D01*
X181820057Y-105639524D02*
X181772438Y-105687143D01*
X181772438Y-105687143D02*
X181724819Y-105782381D01*
X181724819Y-106449048D02*
X181724819Y-107115714D01*
X181724819Y-107115714D02*
X182724819Y-106687143D01*
X212604819Y-99130952D02*
X212128628Y-98797619D01*
X212604819Y-98559524D02*
X211604819Y-98559524D01*
X211604819Y-98559524D02*
X211604819Y-98940476D01*
X211604819Y-98940476D02*
X211652438Y-99035714D01*
X211652438Y-99035714D02*
X211700057Y-99083333D01*
X211700057Y-99083333D02*
X211795295Y-99130952D01*
X211795295Y-99130952D02*
X211938152Y-99130952D01*
X211938152Y-99130952D02*
X212033390Y-99083333D01*
X212033390Y-99083333D02*
X212081009Y-99035714D01*
X212081009Y-99035714D02*
X212128628Y-98940476D01*
X212128628Y-98940476D02*
X212128628Y-98559524D01*
X211700057Y-99511905D02*
X211652438Y-99559524D01*
X211652438Y-99559524D02*
X211604819Y-99654762D01*
X211604819Y-99654762D02*
X211604819Y-99892857D01*
X211604819Y-99892857D02*
X211652438Y-99988095D01*
X211652438Y-99988095D02*
X211700057Y-100035714D01*
X211700057Y-100035714D02*
X211795295Y-100083333D01*
X211795295Y-100083333D02*
X211890533Y-100083333D01*
X211890533Y-100083333D02*
X212033390Y-100035714D01*
X212033390Y-100035714D02*
X212604819Y-99464286D01*
X212604819Y-99464286D02*
X212604819Y-100083333D01*
X211604819Y-100702381D02*
X211604819Y-100797619D01*
X211604819Y-100797619D02*
X211652438Y-100892857D01*
X211652438Y-100892857D02*
X211700057Y-100940476D01*
X211700057Y-100940476D02*
X211795295Y-100988095D01*
X211795295Y-100988095D02*
X211985771Y-101035714D01*
X211985771Y-101035714D02*
X212223866Y-101035714D01*
X212223866Y-101035714D02*
X212414342Y-100988095D01*
X212414342Y-100988095D02*
X212509580Y-100940476D01*
X212509580Y-100940476D02*
X212557200Y-100892857D01*
X212557200Y-100892857D02*
X212604819Y-100797619D01*
X212604819Y-100797619D02*
X212604819Y-100702381D01*
X212604819Y-100702381D02*
X212557200Y-100607143D01*
X212557200Y-100607143D02*
X212509580Y-100559524D01*
X212509580Y-100559524D02*
X212414342Y-100511905D01*
X212414342Y-100511905D02*
X212223866Y-100464286D01*
X212223866Y-100464286D02*
X211985771Y-100464286D01*
X211985771Y-100464286D02*
X211795295Y-100511905D01*
X211795295Y-100511905D02*
X211700057Y-100559524D01*
X211700057Y-100559524D02*
X211652438Y-100607143D01*
X211652438Y-100607143D02*
X211604819Y-100702381D01*
X212604819Y-101511905D02*
X212604819Y-101702381D01*
X212604819Y-101702381D02*
X212557200Y-101797619D01*
X212557200Y-101797619D02*
X212509580Y-101845238D01*
X212509580Y-101845238D02*
X212366723Y-101940476D01*
X212366723Y-101940476D02*
X212176247Y-101988095D01*
X212176247Y-101988095D02*
X211795295Y-101988095D01*
X211795295Y-101988095D02*
X211700057Y-101940476D01*
X211700057Y-101940476D02*
X211652438Y-101892857D01*
X211652438Y-101892857D02*
X211604819Y-101797619D01*
X211604819Y-101797619D02*
X211604819Y-101607143D01*
X211604819Y-101607143D02*
X211652438Y-101511905D01*
X211652438Y-101511905D02*
X211700057Y-101464286D01*
X211700057Y-101464286D02*
X211795295Y-101416667D01*
X211795295Y-101416667D02*
X212033390Y-101416667D01*
X212033390Y-101416667D02*
X212128628Y-101464286D01*
X212128628Y-101464286D02*
X212176247Y-101511905D01*
X212176247Y-101511905D02*
X212223866Y-101607143D01*
X212223866Y-101607143D02*
X212223866Y-101797619D01*
X212223866Y-101797619D02*
X212176247Y-101892857D01*
X212176247Y-101892857D02*
X212128628Y-101940476D01*
X212128628Y-101940476D02*
X212033390Y-101988095D01*
X133469580Y-127070952D02*
X133517200Y-127023333D01*
X133517200Y-127023333D02*
X133564819Y-126880476D01*
X133564819Y-126880476D02*
X133564819Y-126785238D01*
X133564819Y-126785238D02*
X133517200Y-126642381D01*
X133517200Y-126642381D02*
X133421961Y-126547143D01*
X133421961Y-126547143D02*
X133326723Y-126499524D01*
X133326723Y-126499524D02*
X133136247Y-126451905D01*
X133136247Y-126451905D02*
X132993390Y-126451905D01*
X132993390Y-126451905D02*
X132802914Y-126499524D01*
X132802914Y-126499524D02*
X132707676Y-126547143D01*
X132707676Y-126547143D02*
X132612438Y-126642381D01*
X132612438Y-126642381D02*
X132564819Y-126785238D01*
X132564819Y-126785238D02*
X132564819Y-126880476D01*
X132564819Y-126880476D02*
X132612438Y-127023333D01*
X132612438Y-127023333D02*
X132660057Y-127070952D01*
X132660057Y-127451905D02*
X132612438Y-127499524D01*
X132612438Y-127499524D02*
X132564819Y-127594762D01*
X132564819Y-127594762D02*
X132564819Y-127832857D01*
X132564819Y-127832857D02*
X132612438Y-127928095D01*
X132612438Y-127928095D02*
X132660057Y-127975714D01*
X132660057Y-127975714D02*
X132755295Y-128023333D01*
X132755295Y-128023333D02*
X132850533Y-128023333D01*
X132850533Y-128023333D02*
X132993390Y-127975714D01*
X132993390Y-127975714D02*
X133564819Y-127404286D01*
X133564819Y-127404286D02*
X133564819Y-128023333D01*
X132564819Y-128642381D02*
X132564819Y-128737619D01*
X132564819Y-128737619D02*
X132612438Y-128832857D01*
X132612438Y-128832857D02*
X132660057Y-128880476D01*
X132660057Y-128880476D02*
X132755295Y-128928095D01*
X132755295Y-128928095D02*
X132945771Y-128975714D01*
X132945771Y-128975714D02*
X133183866Y-128975714D01*
X133183866Y-128975714D02*
X133374342Y-128928095D01*
X133374342Y-128928095D02*
X133469580Y-128880476D01*
X133469580Y-128880476D02*
X133517200Y-128832857D01*
X133517200Y-128832857D02*
X133564819Y-128737619D01*
X133564819Y-128737619D02*
X133564819Y-128642381D01*
X133564819Y-128642381D02*
X133517200Y-128547143D01*
X133517200Y-128547143D02*
X133469580Y-128499524D01*
X133469580Y-128499524D02*
X133374342Y-128451905D01*
X133374342Y-128451905D02*
X133183866Y-128404286D01*
X133183866Y-128404286D02*
X132945771Y-128404286D01*
X132945771Y-128404286D02*
X132755295Y-128451905D01*
X132755295Y-128451905D02*
X132660057Y-128499524D01*
X132660057Y-128499524D02*
X132612438Y-128547143D01*
X132612438Y-128547143D02*
X132564819Y-128642381D01*
X132564819Y-129832857D02*
X132564819Y-129642381D01*
X132564819Y-129642381D02*
X132612438Y-129547143D01*
X132612438Y-129547143D02*
X132660057Y-129499524D01*
X132660057Y-129499524D02*
X132802914Y-129404286D01*
X132802914Y-129404286D02*
X132993390Y-129356667D01*
X132993390Y-129356667D02*
X133374342Y-129356667D01*
X133374342Y-129356667D02*
X133469580Y-129404286D01*
X133469580Y-129404286D02*
X133517200Y-129451905D01*
X133517200Y-129451905D02*
X133564819Y-129547143D01*
X133564819Y-129547143D02*
X133564819Y-129737619D01*
X133564819Y-129737619D02*
X133517200Y-129832857D01*
X133517200Y-129832857D02*
X133469580Y-129880476D01*
X133469580Y-129880476D02*
X133374342Y-129928095D01*
X133374342Y-129928095D02*
X133136247Y-129928095D01*
X133136247Y-129928095D02*
X133041009Y-129880476D01*
X133041009Y-129880476D02*
X132993390Y-129832857D01*
X132993390Y-129832857D02*
X132945771Y-129737619D01*
X132945771Y-129737619D02*
X132945771Y-129547143D01*
X132945771Y-129547143D02*
X132993390Y-129451905D01*
X132993390Y-129451905D02*
X133041009Y-129404286D01*
X133041009Y-129404286D02*
X133136247Y-129356667D01*
X175624819Y-99130952D02*
X175148628Y-98797619D01*
X175624819Y-98559524D02*
X174624819Y-98559524D01*
X174624819Y-98559524D02*
X174624819Y-98940476D01*
X174624819Y-98940476D02*
X174672438Y-99035714D01*
X174672438Y-99035714D02*
X174720057Y-99083333D01*
X174720057Y-99083333D02*
X174815295Y-99130952D01*
X174815295Y-99130952D02*
X174958152Y-99130952D01*
X174958152Y-99130952D02*
X175053390Y-99083333D01*
X175053390Y-99083333D02*
X175101009Y-99035714D01*
X175101009Y-99035714D02*
X175148628Y-98940476D01*
X175148628Y-98940476D02*
X175148628Y-98559524D01*
X174720057Y-99511905D02*
X174672438Y-99559524D01*
X174672438Y-99559524D02*
X174624819Y-99654762D01*
X174624819Y-99654762D02*
X174624819Y-99892857D01*
X174624819Y-99892857D02*
X174672438Y-99988095D01*
X174672438Y-99988095D02*
X174720057Y-100035714D01*
X174720057Y-100035714D02*
X174815295Y-100083333D01*
X174815295Y-100083333D02*
X174910533Y-100083333D01*
X174910533Y-100083333D02*
X175053390Y-100035714D01*
X175053390Y-100035714D02*
X175624819Y-99464286D01*
X175624819Y-99464286D02*
X175624819Y-100083333D01*
X174624819Y-100702381D02*
X174624819Y-100797619D01*
X174624819Y-100797619D02*
X174672438Y-100892857D01*
X174672438Y-100892857D02*
X174720057Y-100940476D01*
X174720057Y-100940476D02*
X174815295Y-100988095D01*
X174815295Y-100988095D02*
X175005771Y-101035714D01*
X175005771Y-101035714D02*
X175243866Y-101035714D01*
X175243866Y-101035714D02*
X175434342Y-100988095D01*
X175434342Y-100988095D02*
X175529580Y-100940476D01*
X175529580Y-100940476D02*
X175577200Y-100892857D01*
X175577200Y-100892857D02*
X175624819Y-100797619D01*
X175624819Y-100797619D02*
X175624819Y-100702381D01*
X175624819Y-100702381D02*
X175577200Y-100607143D01*
X175577200Y-100607143D02*
X175529580Y-100559524D01*
X175529580Y-100559524D02*
X175434342Y-100511905D01*
X175434342Y-100511905D02*
X175243866Y-100464286D01*
X175243866Y-100464286D02*
X175005771Y-100464286D01*
X175005771Y-100464286D02*
X174815295Y-100511905D01*
X174815295Y-100511905D02*
X174720057Y-100559524D01*
X174720057Y-100559524D02*
X174672438Y-100607143D01*
X174672438Y-100607143D02*
X174624819Y-100702381D01*
X174624819Y-101940476D02*
X174624819Y-101464286D01*
X174624819Y-101464286D02*
X175101009Y-101416667D01*
X175101009Y-101416667D02*
X175053390Y-101464286D01*
X175053390Y-101464286D02*
X175005771Y-101559524D01*
X175005771Y-101559524D02*
X175005771Y-101797619D01*
X175005771Y-101797619D02*
X175053390Y-101892857D01*
X175053390Y-101892857D02*
X175101009Y-101940476D01*
X175101009Y-101940476D02*
X175196247Y-101988095D01*
X175196247Y-101988095D02*
X175434342Y-101988095D01*
X175434342Y-101988095D02*
X175529580Y-101940476D01*
X175529580Y-101940476D02*
X175577200Y-101892857D01*
X175577200Y-101892857D02*
X175624819Y-101797619D01*
X175624819Y-101797619D02*
X175624819Y-101559524D01*
X175624819Y-101559524D02*
X175577200Y-101464286D01*
X175577200Y-101464286D02*
X175529580Y-101416667D01*
X219554819Y-103639524D02*
X218554819Y-103639524D01*
X218554819Y-103639524D02*
X218554819Y-103877619D01*
X218554819Y-103877619D02*
X218602438Y-104020476D01*
X218602438Y-104020476D02*
X218697676Y-104115714D01*
X218697676Y-104115714D02*
X218792914Y-104163333D01*
X218792914Y-104163333D02*
X218983390Y-104210952D01*
X218983390Y-104210952D02*
X219126247Y-104210952D01*
X219126247Y-104210952D02*
X219316723Y-104163333D01*
X219316723Y-104163333D02*
X219411961Y-104115714D01*
X219411961Y-104115714D02*
X219507200Y-104020476D01*
X219507200Y-104020476D02*
X219554819Y-103877619D01*
X219554819Y-103877619D02*
X219554819Y-103639524D01*
X218650057Y-104591905D02*
X218602438Y-104639524D01*
X218602438Y-104639524D02*
X218554819Y-104734762D01*
X218554819Y-104734762D02*
X218554819Y-104972857D01*
X218554819Y-104972857D02*
X218602438Y-105068095D01*
X218602438Y-105068095D02*
X218650057Y-105115714D01*
X218650057Y-105115714D02*
X218745295Y-105163333D01*
X218745295Y-105163333D02*
X218840533Y-105163333D01*
X218840533Y-105163333D02*
X218983390Y-105115714D01*
X218983390Y-105115714D02*
X219554819Y-104544286D01*
X219554819Y-104544286D02*
X219554819Y-105163333D01*
X218554819Y-105782381D02*
X218554819Y-105877619D01*
X218554819Y-105877619D02*
X218602438Y-105972857D01*
X218602438Y-105972857D02*
X218650057Y-106020476D01*
X218650057Y-106020476D02*
X218745295Y-106068095D01*
X218745295Y-106068095D02*
X218935771Y-106115714D01*
X218935771Y-106115714D02*
X219173866Y-106115714D01*
X219173866Y-106115714D02*
X219364342Y-106068095D01*
X219364342Y-106068095D02*
X219459580Y-106020476D01*
X219459580Y-106020476D02*
X219507200Y-105972857D01*
X219507200Y-105972857D02*
X219554819Y-105877619D01*
X219554819Y-105877619D02*
X219554819Y-105782381D01*
X219554819Y-105782381D02*
X219507200Y-105687143D01*
X219507200Y-105687143D02*
X219459580Y-105639524D01*
X219459580Y-105639524D02*
X219364342Y-105591905D01*
X219364342Y-105591905D02*
X219173866Y-105544286D01*
X219173866Y-105544286D02*
X218935771Y-105544286D01*
X218935771Y-105544286D02*
X218745295Y-105591905D01*
X218745295Y-105591905D02*
X218650057Y-105639524D01*
X218650057Y-105639524D02*
X218602438Y-105687143D01*
X218602438Y-105687143D02*
X218554819Y-105782381D01*
X218983390Y-106687143D02*
X218935771Y-106591905D01*
X218935771Y-106591905D02*
X218888152Y-106544286D01*
X218888152Y-106544286D02*
X218792914Y-106496667D01*
X218792914Y-106496667D02*
X218745295Y-106496667D01*
X218745295Y-106496667D02*
X218650057Y-106544286D01*
X218650057Y-106544286D02*
X218602438Y-106591905D01*
X218602438Y-106591905D02*
X218554819Y-106687143D01*
X218554819Y-106687143D02*
X218554819Y-106877619D01*
X218554819Y-106877619D02*
X218602438Y-106972857D01*
X218602438Y-106972857D02*
X218650057Y-107020476D01*
X218650057Y-107020476D02*
X218745295Y-107068095D01*
X218745295Y-107068095D02*
X218792914Y-107068095D01*
X218792914Y-107068095D02*
X218888152Y-107020476D01*
X218888152Y-107020476D02*
X218935771Y-106972857D01*
X218935771Y-106972857D02*
X218983390Y-106877619D01*
X218983390Y-106877619D02*
X218983390Y-106687143D01*
X218983390Y-106687143D02*
X219031009Y-106591905D01*
X219031009Y-106591905D02*
X219078628Y-106544286D01*
X219078628Y-106544286D02*
X219173866Y-106496667D01*
X219173866Y-106496667D02*
X219364342Y-106496667D01*
X219364342Y-106496667D02*
X219459580Y-106544286D01*
X219459580Y-106544286D02*
X219507200Y-106591905D01*
X219507200Y-106591905D02*
X219554819Y-106687143D01*
X219554819Y-106687143D02*
X219554819Y-106877619D01*
X219554819Y-106877619D02*
X219507200Y-106972857D01*
X219507200Y-106972857D02*
X219459580Y-107020476D01*
X219459580Y-107020476D02*
X219364342Y-107068095D01*
X219364342Y-107068095D02*
X219173866Y-107068095D01*
X219173866Y-107068095D02*
X219078628Y-107020476D01*
X219078628Y-107020476D02*
X219031009Y-106972857D01*
X219031009Y-106972857D02*
X218983390Y-106877619D01*
D11*
%TO.C,D206*%
X147560000Y-100820000D02*
X147560000Y-107830000D01*
X147560000Y-100820000D02*
X150860000Y-100820000D01*
X150860000Y-100820000D02*
X150860000Y-107830000D01*
%TO.C,R207*%
X140680000Y-99522936D02*
X140680000Y-100977064D01*
X142500000Y-99522936D02*
X142500000Y-100977064D01*
%TO.C,R206*%
X209260000Y-100977064D02*
X209260000Y-99522936D01*
X211080000Y-100977064D02*
X211080000Y-99522936D01*
%TO.C,D207*%
X183120000Y-100820000D02*
X183120000Y-107830000D01*
X183120000Y-100820000D02*
X186420000Y-100820000D01*
X186420000Y-100820000D02*
X186420000Y-107830000D01*
%TO.C,R209*%
X213070000Y-99522936D02*
X213070000Y-100977064D01*
X214890000Y-99522936D02*
X214890000Y-100977064D01*
%TO.C,R208*%
X176240000Y-99522936D02*
X176240000Y-100977064D01*
X178060000Y-99522936D02*
X178060000Y-100977064D01*
%TO.C,C206*%
X130695000Y-128451252D02*
X130695000Y-127928748D01*
X132165000Y-128451252D02*
X132165000Y-127928748D01*
%TO.C,R205*%
X172430000Y-100977064D02*
X172430000Y-99522936D01*
X174250000Y-100977064D02*
X174250000Y-99522936D01*
%TO.C,R204*%
X136870000Y-100977064D02*
X136870000Y-99522936D01*
X138690000Y-100977064D02*
X138690000Y-99522936D01*
%TO.C,D208*%
X219950000Y-100820000D02*
X219950000Y-107830000D01*
X219950000Y-100820000D02*
X223250000Y-100820000D01*
X223250000Y-100820000D02*
X223250000Y-107830000D01*
%TD*%
M02*
